<?xml version="1.0" standalone="no"?>
<!DOCTYPE svg PUBLIC "-//W3C//DTD SVG 20010904//EN"
 "http://www.w3.org/TR/2001/REC-SVG-20010904/DTD/svg10.dtd">
<svg version="1.0" xmlns="http://www.w3.org/2000/svg"
 width="1200.000000pt" height="1600.000000pt" viewBox="0 0 1200.000000 1600.000000"
 preserveAspectRatio="xMidYMid meet">

<g transform="translate(0.000000,1600.000000) scale(0.100000,-0.100000)"
fill="#000000" stroke="none">
<path d="M11895 15980 c20 -23 29 -21 19 4 -3 9 -13 16 -22 16 -13 0 -12 -3 3
-20z"/>
<path d="M11970 15990 c0 -5 4 -10 9 -10 6 0 13 5 16 10 3 6 -1 10 -9 10 -9 0
-16 -4 -16 -10z"/>
<path d="M11950 15932 c0 -5 11 -19 25 -32 24 -22 25 -22 25 -4 0 11 -5 25
-12 32 -14 14 -38 16 -38 4z"/>
<path d="M6218 14616 c-21 -7 -40 -11 -43 -7 -21 20 -176 -14 -227 -50 -14
-11 -33 -19 -42 -19 -25 0 -90 -29 -82 -37 3 -4 12 -1 18 5 14 14 38 16 38 3
0 -5 -9 -13 -20 -16 -11 -4 -18 -10 -15 -15 6 -10 -30 -19 -54 -13 -11 3 -21
15 -23 27 -3 18 -5 17 -18 -11 -12 -28 -21 -33 -60 -39 -25 -4 -58 -13 -75
-22 -20 -10 -30 -11 -33 -3 -2 6 -8 11 -14 11 -6 0 -8 -6 -5 -14 4 -10 -7 -16
-36 -22 -23 -4 -48 -7 -56 -7 -8 1 -26 -7 -39 -18 -14 -10 -29 -19 -34 -19 -5
0 -33 -16 -62 -35 -29 -19 -56 -35 -60 -35 -5 0 -19 -9 -33 -20 -14 -11 -34
-20 -44 -20 -10 0 -26 -11 -35 -26 -9 -14 -23 -23 -30 -20 -7 3 -44 -25 -81
-61 -37 -37 -62 -68 -56 -70 22 -8 1 -34 -44 -55 -52 -25 -173 -140 -200 -190
-10 -19 -42 -70 -71 -114 -29 -43 -55 -90 -58 -104 -3 -14 -10 -34 -15 -45
-10 -23 -49 -190 -58 -255 -4 -25 -15 -59 -23 -76 -9 -16 -24 -68 -33 -115
-18 -93 -15 -200 11 -394 19 -147 20 -200 5 -325 -7 -58 -13 -141 -13 -185 0
-90 20 -275 31 -290 9 -12 27 -99 37 -175 3 -30 13 -73 21 -95 8 -22 18 -104
23 -183 4 -79 11 -146 15 -150 4 -4 6 7 5 23 -3 45 -1 52 14 58 11 5 15 -3 14
-34 0 -45 20 -102 34 -93 5 3 6 -5 2 -20 -3 -14 -2 -26 3 -26 5 0 15 -19 21
-42 6 -24 20 -68 31 -98 19 -54 20 -54 20 -19 2 65 23 149 41 159 14 8 21 2
36 -33 10 -23 21 -44 25 -47 4 -3 9 -14 12 -25 3 -11 3 27 2 85 -2 58 -7 195
-10 305 -5 133 -3 240 5 320 7 66 16 235 20 375 4 140 13 289 19 330 7 41 14
96 16 121 8 107 47 288 75 357 15 34 33 27 26 -10 -5 -31 -4 -30 17 12 12 25
31 58 41 73 11 16 27 43 36 60 19 35 44 50 34 20 -4 -10 6 -1 22 19 16 21 36
37 45 38 9 0 24 11 33 25 13 20 25 25 59 26 23 1 34 3 25 6 -19 5 -25 23 -8
23 6 0 15 12 21 27 8 22 12 24 19 13 5 -8 7 -24 3 -35 -4 -14 4 -10 30 15 20
18 34 37 31 42 -3 4 2 5 10 2 9 -3 16 -1 16 5 0 6 6 8 14 5 7 -3 21 2 30 11 9
9 32 21 51 26 20 6 35 16 35 24 0 11 12 15 40 15 22 0 40 5 40 10 0 6 -4 10
-10 10 -22 0 -8 18 18 23 35 7 42 -1 18 -19 -27 -19 -15 -27 17 -11 18 8 25
18 22 28 -6 17 21 35 27 19 2 -6 9 -5 18 0 13 8 12 10 -2 10 -22 0 -23 16 -2
24 23 9 32 0 26 -29 -5 -28 15 -35 25 -9 3 9 13 14 25 11 11 -3 22 2 28 13 5
10 26 21 47 26 48 10 55 11 72 13 7 0 11 7 7 16 -3 10 8 20 37 33 23 10 48 26
55 35 8 9 33 19 57 22 31 5 42 11 41 23 -1 20 42 18 59 -3 11 -13 55 -27 53
-16 -2 20 4 31 17 31 8 0 15 -6 15 -12 1 -20 50 -76 50 -58 0 9 -5 21 -11 27
-8 8 -8 16 0 30 8 15 10 15 11 2 0 -9 16 -32 35 -52 19 -20 35 -43 35 -51 0
-8 5 -18 12 -22 7 -5 9 -2 5 8 -8 22 41 31 61 12 12 -13 11 -18 -11 -38 -14
-13 -32 -26 -39 -29 -9 -4 -7 -6 4 -6 9 -1 20 4 23 9 3 6 15 10 25 10 11 0 20
8 22 21 2 12 11 27 21 33 15 9 20 7 29 -9 11 -18 39 -47 189 -192 30 -29 72
-71 94 -93 22 -22 43 -40 47 -40 5 0 8 -6 8 -14 0 -8 7 -16 15 -20 8 -3 15
-11 15 -19 0 -7 11 -24 25 -37 14 -13 25 -31 25 -40 0 -9 9 -25 20 -35 11 -10
20 -27 20 -37 0 -27 -29 -68 -45 -62 -10 4 -12 0 -8 -15 3 -12 11 -21 18 -21
8 0 15 -10 17 -22 2 -15 11 -24 25 -26 14 -2 20 -8 16 -18 -3 -8 0 -14 6 -14
6 0 11 -7 11 -15 0 -20 77 -40 95 -25 8 7 19 9 25 5 16 -10 12 -42 -6 -49 -26
-10 -34 -7 -27 11 5 14 2 13 -16 -4 -15 -13 -35 -21 -51 -20 -16 1 -27 4 -25
5 8 8 -29 40 -39 35 -6 -4 -25 -6 -44 -5 -39 3 -62 -12 -62 -39 0 -28 -53 -26
-73 4 l-15 22 -7 -27 c-7 -28 -28 -37 -40 -18 -5 8 -11 7 -21 -1 -8 -6 -14 -8
-14 -4 0 4 -7 2 -15 -5 -8 -6 -23 -9 -34 -5 -13 4 -23 0 -29 -11 -7 -13 -13
-14 -31 -5 -19 11 -25 8 -22 -12 1 -4 -16 -5 -37 -1 -36 6 -39 4 -67 -38 -15
-23 -37 -49 -47 -56 -10 -7 -18 -20 -18 -29 0 -9 -6 -13 -15 -10 -8 4 -17 2
-20 -3 -4 -6 -19 -10 -36 -10 -16 0 -28 -3 -27 -7 1 -5 -3 -18 -10 -30 -15
-26 -2 -63 37 -105 13 -16 21 -28 17 -28 -5 0 -3 -7 4 -15 7 -9 14 -38 15 -66
2 -27 7 -55 12 -62 5 -7 9 -31 9 -54 -1 -24 2 -43 7 -43 12 0 8 -55 -5 -68 -8
-8 -8 -12 -1 -12 6 0 13 -18 15 -40 2 -22 1 -40 -2 -40 -11 0 -5 -75 8 -88 6
-7 12 -21 12 -31 0 -20 76 -141 89 -141 16 0 44 -75 48 -128 4 -55 -14 -102
-39 -102 -6 0 -28 -16 -49 -35 -22 -19 -44 -35 -50 -35 -6 0 -25 -11 -43 -25
-18 -14 -42 -25 -53 -25 -17 0 -56 -27 -104 -75 -9 -8 -24 -15 -35 -15 -10 -1
-30 -8 -44 -16 -18 -11 -20 -14 -5 -10 19 6 19 5 2 -8 -18 -14 -18 -15 3 -26
12 -6 19 -14 16 -17 -3 -3 -22 4 -42 16 -20 12 -58 26 -84 32 -42 9 -54 7 -96
-12 -64 -29 -84 -47 -84 -75 0 -17 4 -21 20 -17 22 6 28 -12 8 -20 -9 -3 -3
-14 15 -30 25 -22 35 -25 80 -21 28 3 53 7 56 9 4 5 -36 9 -54 5 -5 -1 -7 1
-3 5 6 6 108 14 108 8 0 -1 -10 -11 -21 -22 -21 -19 -21 -21 -3 -38 9 -10 19
-17 21 -15 2 1 6 2 11 2 4 0 0 -4 -7 -9 -9 -6 -22 -6 -32 0 -25 13 -32 11 -26
-6 4 -8 2 -17 -3 -20 -16 -10 -11 -25 8 -25 10 0 24 -6 31 -12 10 -11 11 -7 5
17 l-7 30 27 -24 c19 -18 23 -27 14 -33 -10 -6 -9 -8 2 -8 13 0 13 -2 1 -9
-12 -8 -10 -12 12 -22 15 -7 27 -16 27 -22 0 -5 7 -6 15 -3 11 4 19 -3 25 -19
5 -14 14 -25 19 -25 5 0 12 -9 16 -19 4 -12 12 -18 20 -14 8 3 17 -1 20 -9 3
-8 23 -15 53 -16 72 -4 87 -8 90 -24 4 -21 -82 -45 -189 -53 -49 -3 -110 -15
-140 -26 -30 -12 -70 -26 -89 -32 -19 -6 -47 -19 -62 -29 -14 -10 -35 -18 -47
-18 -11 0 -42 -12 -68 -27 -31 -17 -65 -27 -98 -28 -46 -2 -50 0 -55 23 -3 14
-14 30 -25 36 -11 6 -24 16 -30 22 -5 7 -22 14 -37 18 -16 4 -28 13 -28 20 0
8 -7 22 -16 31 -10 10 -14 24 -10 40 4 15 2 25 -4 25 -16 0 22 47 48 59 12 6
22 17 22 26 0 8 5 15 10 15 6 0 15 11 20 25 5 14 14 25 20 25 5 0 10 7 10 17
0 9 7 23 15 32 25 25 75 105 75 119 0 6 4 12 9 12 15 0 49 119 54 190 3 45 2
58 -4 41 -6 -14 -15 -21 -23 -18 -9 4 -16 -3 -20 -19 -5 -17 -13 -24 -29 -24
-15 0 -49 -24 -92 -64 -38 -36 -72 -63 -77 -60 -4 3 -11 -2 -15 -11 -3 -10 0
-21 8 -26 10 -6 6 -11 -18 -20 -18 -6 -33 -16 -33 -21 0 -6 -8 -17 -17 -24
-10 -7 -18 -16 -18 -21 -2 -30 -30 -84 -51 -98 -14 -9 -23 -19 -20 -22 3 -3
-3 -16 -13 -29 -11 -14 -25 -48 -31 -77 -7 -28 -19 -60 -28 -69 -14 -16 -14
-18 0 -18 13 0 14 -7 8 -35 -19 -85 44 -214 142 -292 45 -37 50 -38 81 -21 21
11 21 11 2 19 -17 6 -15 8 10 9 17 2 34 2 38 1 4 -1 17 4 28 10 11 6 44 12 73
14 70 6 110 21 102 40 -3 8 -1 17 4 20 6 4 10 1 10 -4 0 -17 42 -13 80 8 55
29 81 32 341 33 261 1 283 -3 291 -46 6 -31 -18 -56 -55 -56 -15 0 -27 -4 -27
-10 0 -5 -16 -10 -35 -10 -24 0 -39 -6 -47 -20 -7 -11 -21 -20 -30 -20 -10 0
-18 -4 -18 -10 0 -5 -13 -10 -29 -10 -16 0 -42 -3 -59 -6 -27 -6 -29 -8 -19
-25 7 -11 19 -17 28 -14 17 6 49 -18 49 -36 0 -5 7 -9 15 -9 12 0 11 -4 -5
-20 -11 -11 -24 -20 -29 -20 -9 0 -21 -24 -21 -41 0 -5 4 -9 9 -9 5 0 20 -10
34 -22 l24 -21 -21 -40 c-11 -21 -29 -43 -38 -48 -10 -5 -18 -16 -18 -25 0
-12 12 -14 75 -8 66 6 75 5 75 -10 0 -17 9 -20 35 -10 12 5 13 9 4 14 -8 6 -6
11 8 18 12 7 25 7 34 1 11 -7 10 -9 -5 -9 -26 0 -15 -10 18 -16 22 -4 26 -1
26 21 0 16 -6 25 -15 25 -8 0 -15 5 -15 10 0 9 11 12 38 9 4 0 6 -6 4 -14 -1
-8 13 -19 33 -26 19 -7 35 -19 35 -26 0 -18 19 -16 26 2 4 9 19 15 40 15 33 0
34 -1 34 -40 0 -33 -4 -42 -25 -52 -30 -14 -34 -48 -5 -48 24 0 24 -3 5 -40
-10 -19 -23 -30 -36 -30 -12 0 -23 -8 -26 -20 -3 -11 -13 -20 -22 -20 -9 0
-22 -9 -29 -21 -9 -14 -19 -18 -34 -14 -15 5 -28 -1 -49 -24 -28 -31 -56 -37
-85 -18 -8 4 -14 -3 -19 -20 -6 -24 -8 -26 -16 -10 -12 20 -29 23 -29 4 0 -14
-27 -16 -46 -4 -14 8 -24 -1 -24 -23 0 -24 -173 -43 -188 -20 -8 12 -12 12
-35 -3 -15 -10 -27 -15 -27 -11 0 4 -6 1 -13 -5 -16 -13 -28 -5 -20 15 3 8 1
14 -5 14 -16 0 -23 -31 -11 -46 9 -11 8 -14 -5 -14 -9 0 -16 5 -16 11 0 6 -9
9 -20 6 -10 -3 -20 -1 -22 5 -5 14 -118 23 -118 9 0 -6 -15 -1 -35 11 -42 28
-45 41 -7 32 22 -5 20 -1 -15 21 -45 27 -55 39 -25 28 15 -6 16 -5 2 13 -8 10
-21 23 -27 27 -7 4 -13 18 -13 30 0 20 -1 20 -17 5 -13 -14 -14 -20 -3 -32 10
-13 10 -16 -4 -16 -9 0 -19 6 -22 14 -4 11 -12 7 -34 -14 -16 -15 -34 -31 -42
-34 -11 -5 -11 -7 0 -12 7 -3 25 -17 40 -29 24 -21 25 -26 14 -44 -10 -18 -10
-25 4 -46 16 -24 16 -25 -2 -19 -11 4 -24 11 -30 15 -6 5 -14 6 -17 3 -4 -4
12 -21 35 -40 39 -30 58 -64 37 -64 -23 0 -5 -22 30 -36 22 -9 52 -31 66 -50
28 -37 18 -47 -15 -14 -11 11 -25 20 -31 20 -5 0 -7 5 -4 10 3 6 -3 10 -14 10
-21 0 -23 -31 -3 -38 7 -2 12 -12 12 -23 0 -11 7 -19 18 -20 9 -1 24 -2 32 -3
8 -2 25 -3 38 -4 20 -2 21 -4 10 -23 -10 -17 -10 -23 0 -26 6 -3 12 -14 12
-26 0 -33 93 -127 125 -127 19 0 25 -5 25 -22 0 -19 2 -20 10 -8 6 10 10 11
10 3 0 -7 9 -13 19 -13 10 0 22 -7 25 -16 11 -29 6 -37 -13 -20 -11 10 -25 15
-30 11 -6 -3 -11 -1 -11 6 0 10 -3 10 -12 1 -9 -9 -10 -15 -2 -20 12 -8 12
-40 0 -60 -7 -13 -2 -15 25 -13 19 2 33 -40 17 -50 -6 -4 -8 -14 -5 -23 4 -9
-1 -19 -10 -24 -13 -8 -11 -10 11 -16 20 -5 26 -12 25 -29 -5 -54 0 -69 21
-64 26 7 25 2 -5 -31 l-25 -27 30 -3 c19 -2 30 -9 30 -18 0 -9 7 -14 18 -12
29 4 90 -40 112 -82 7 -14 22 -31 32 -39 11 -7 17 -19 14 -26 -7 -18 40 -47
70 -43 37 5 34 23 -4 26 -28 3 -31 6 -22 18 7 7 17 11 23 7 5 -3 16 2 23 12 8
11 28 18 52 20 22 1 44 5 51 9 6 4 11 1 11 -7 0 -11 20 -14 98 -13 86 0 97 -2
96 -17 -1 -12 6 -17 22 -17 15 0 24 6 24 15 0 16 52 21 84 9 34 -13 14 -124
-22 -124 -9 0 -21 -31 -22 -52 0 -5 9 -8 20 -8 11 0 20 -4 20 -9 0 -5 -8 -8
-17 -7 -13 1 -19 -8 -21 -31 -3 -31 -26 -46 -34 -23 -2 6 -4 -22 -5 -61 -2
-60 -6 -74 -23 -86 -16 -11 -20 -22 -16 -39 4 -14 2 -33 -4 -43 -7 -14 -6 -22
5 -31 14 -11 14 -15 1 -29 -21 -23 -8 -36 42 -39 28 -2 48 3 58 13 9 8 20 15
25 15 14 0 11 -30 -3 -30 -8 -1 -6 -6 5 -14 21 -17 22 -35 0 -51 -14 -11 -13
-13 10 -19 26 -6 38 -26 17 -26 -5 0 -10 5 -10 12 0 6 -2 9 -5 6 -3 -3 -1 -17
5 -32 9 -23 6 -33 -23 -70 -17 -24 -59 -62 -92 -84 -108 -75 -189 -141 -280
-232 -50 -50 -93 -90 -96 -90 -4 0 -26 30 -50 67 -40 62 -172 204 -244 263
-63 52 -200 152 -234 171 -31 18 -91 93 -91 114 0 4 -15 28 -34 54 -18 25 -84
148 -145 274 -62 125 -134 262 -160 305 -57 92 -98 183 -151 335 -81 237 -103
357 -101 570 1 176 -1 180 -60 125 -44 -41 -80 -102 -114 -193 -15 -39 -32
-75 -38 -82 -7 -7 -52 -33 -102 -59 -49 -25 -102 -53 -117 -61 -15 -8 -54 -18
-86 -23 -75 -12 -167 -42 -223 -71 -38 -20 -65 -24 -204 -30 -170 -8 -279 -27
-445 -79 -52 -16 -138 -38 -190 -49 -113 -23 -163 -44 -416 -172 -207 -104
-330 -181 -415 -256 -64 -57 -158 -156 -180 -189 -8 -13 -18 -21 -21 -18 -8 7
-104 -63 -139 -102 -63 -70 -139 -201 -139 -242 0 -25 -64 -169 -131 -297 -51
-97 -140 -311 -178 -425 -32 -101 -45 -145 -116 -395 -50 -176 -174 -566 -210
-660 -12 -33 -46 -127 -74 -210 -29 -82 -60 -170 -71 -195 -45 -109 -93 -229
-112 -280 -11 -30 -29 -74 -39 -98 -11 -24 -33 -78 -50 -120 -17 -42 -35 -82
-40 -88 -11 -13 -159 -310 -159 -319 0 -3 -15 -29 -34 -58 -18 -28 -42 -74
-52 -100 -14 -34 -37 -64 -80 -102 -64 -57 -78 -86 -88 -181 -4 -37 -33 -109
-124 -304 -33 -72 -39 -137 -17 -179 16 -32 77 -118 132 -188 36 -47 104 -93
220 -152 115 -58 163 -94 163 -122 0 -10 9 -28 20 -39 11 -11 16 -20 11 -20
-14 0 10 -42 47 -84 25 -29 39 -36 67 -36 37 0 47 -13 17 -25 -16 -6 -16 -7 1
-16 9 -6 17 -18 17 -28 0 -10 8 -25 18 -34 21 -19 62 -23 62 -6 0 5 5 7 10 4
19 -12 -18 -35 -54 -35 -29 0 -36 -4 -36 -20 0 -17 7 -20 40 -20 36 0 40 -3
40 -25 0 -14 -8 -29 -19 -34 -10 -6 -21 -18 -25 -26 -4 -11 -2 -14 7 -9 9 6 9
5 0 -7 -11 -13 -6 -19 33 -38 25 -13 58 -35 74 -50 16 -14 57 -51 91 -81 80
-71 109 -102 109 -116 0 -7 7 -15 16 -18 11 -4 15 -18 14 -53 -3 -71 -1 -85 9
-79 5 3 12 -1 15 -9 9 -25 -5 -73 -30 -100 -16 -17 -24 -38 -24 -61 0 -24 -5
-34 -15 -34 -16 0 -19 -26 -15 -112 1 -30 -2 -48 -9 -48 -6 0 -11 -13 -11 -29
0 -41 -22 -131 -32 -131 -4 0 -8 -18 -8 -41 0 -36 -2 -40 -20 -34 -14 5 -20 2
-20 -9 0 -9 5 -16 10 -16 15 0 12 -29 -4 -45 -8 -8 -17 -48 -21 -95 -6 -67
-10 -80 -25 -80 -12 0 -19 -11 -23 -37 -4 -20 -4 -39 -2 -42 3 -2 5 3 5 12 0
19 25 23 36 6 3 -6 1 -14 -5 -18 -12 -8 -4 -68 10 -77 16 -9 10 -26 -7 -20
-23 9 -37 -3 -24 -19 8 -10 8 -19 1 -34 -6 -11 -11 -33 -11 -50 0 -16 -7 -42
-14 -58 -8 -15 -20 -50 -27 -76 -7 -27 -19 -56 -27 -64 -12 -11 -15 -35 -14
-95 1 -60 -2 -84 -14 -95 -11 -11 -14 -26 -9 -53 5 -27 2 -40 -10 -50 -9 -7
-15 -25 -15 -39 4 -53 -1 -70 -26 -100 -14 -17 -24 -38 -21 -45 3 -8 0 -19 -7
-25 -8 -6 -16 -34 -20 -61 -4 -27 -11 -52 -16 -55 -15 -9 -12 -25 4 -25 19 0
26 -87 9 -109 -15 -19 -17 -48 -4 -53 24 -8 12 -226 -13 -240 -9 -5 -16 -15
-16 -23 0 -7 -6 -26 -14 -42 -14 -27 -56 -152 -56 -166 0 -4 129 -6 287 -5
l286 3 8 25 c20 67 117 373 164 520 253 783 380 1320 455 1935 66 537 142 969
174 993 20 15 107 44 113 38 4 -3 -1 -142 -10 -308 -22 -389 -36 -735 -46
-1118 l-8 -305 -56 -170 c-31 -93 -68 -215 -82 -270 -15 -55 -36 -125 -46
-155 -11 -30 -28 -93 -38 -140 -11 -47 -26 -116 -36 -155 -65 -274 -75 -338
-75 -480 0 -150 18 -215 87 -323 l58 -91 3364 0 c3192 -1 3364 0 3377 17 7 9
14 29 14 45 0 18 5 27 16 27 13 0 15 8 12 39 -2 29 0 37 10 33 10 -4 12 4 6
34 -10 57 9 31 30 -41 10 -33 24 -81 33 -107 l15 -48 581 0 c320 0 576 4 569
8 -14 10 -51 367 -77 762 -9 135 -20 297 -25 360 -5 63 -9 162 -9 220 -1 58
-5 139 -10 180 -6 41 -11 116 -11 165 0 50 -4 105 -10 124 -5 18 -10 52 -10
75 -1 40 -21 200 -40 321 -16 99 -47 251 -85 410 -20 83 -38 164 -41 180 -3
17 -7 41 -10 55 -2 14 -9 48 -14 75 -11 54 -25 136 -34 200 -3 22 -8 55 -11
73 l-6 32 104 0 c121 0 170 14 233 65 47 38 84 106 84 151 0 16 -7 48 -15 70
-44 127 -58 201 -59 314 l-1 116 -57 114 c-60 121 -68 149 -98 350 -10 69 -33
193 -50 275 -27 127 -33 183 -40 365 -5 118 -18 283 -30 365 -11 83 -29 236
-40 340 -10 105 -21 201 -24 215 -3 14 -8 144 -11 290 -3 146 -10 294 -15 330
-6 36 -15 101 -20 145 -14 103 -33 206 -64 330 -13 55 -22 103 -19 108 7 11
-15 132 -35 187 -15 45 -40 90 -140 255 -83 137 -141 225 -185 280 -60 75
-202 212 -287 277 -41 32 -120 92 -175 134 -55 42 -122 87 -150 101 -62 30
-196 83 -211 83 -6 0 -33 8 -60 19 -27 10 -80 30 -119 44 -38 14 -128 48 -200
76 -71 27 -160 59 -197 70 -37 12 -92 36 -122 54 -150 87 -174 99 -214 110
-31 8 -62 29 -102 68 -56 53 -58 58 -70 130 -6 41 -22 97 -35 126 -26 59 -92
150 -140 197 l-33 31 18 95 c10 52 26 138 36 190 21 121 82 362 95 375 5 5 9
16 9 25 0 9 9 25 20 35 11 10 20 23 20 28 0 6 10 24 23 41 13 17 36 56 51 86
15 30 41 72 57 92 17 21 24 38 17 40 -8 3 -8 10 1 26 14 26 31 29 31 6 0 -20
22 -13 26 8 1 11 -3 15 -12 11 -9 -3 -14 2 -14 16 0 13 6 21 16 21 12 0 14 3
6 13 -12 14 13 77 29 77 5 0 4 -8 -2 -19 -8 -11 -9 -26 -4 -37 8 -17 9 -16 13
6 5 35 38 67 76 74 40 8 105 71 122 118 15 41 17 89 4 122 -9 25 -5 48 45 298
8 37 20 82 28 100 17 39 51 429 49 568 -1 52 -3 217 -4 365 -2 149 -7 275 -10
280 -4 6 -11 49 -18 95 -13 100 -36 189 -55 210 -23 25 -37 107 -24 132 10 18
7 36 -11 93 -12 38 -26 78 -31 87 -5 10 -9 23 -9 30 0 6 -6 19 -14 27 -8 9
-18 28 -21 44 -6 23 -4 26 9 21 12 -5 7 11 -18 51 -19 32 -32 64 -29 71 3 8 0
14 -6 14 -6 0 -11 6 -11 13 0 7 -13 44 -29 82 -34 82 -45 155 -21 140 27 -17
-26 90 -79 160 -26 33 -65 86 -86 119 -39 57 -99 120 -240 252 -65 61 -97 80
-255 154 -107 50 -200 118 -196 143 0 5 -12 15 -27 23 -15 8 -25 19 -22 24 4
6 3 10 -2 10 -4 0 -22 13 -39 29 -43 40 -116 68 -199 76 -38 4 -74 10 -80 13
-10 6 -113 15 -197 16 -27 1 -48 4 -48 9 0 4 -4 7 -10 7 -5 0 -10 -7 -10 -15
0 -9 -9 -15 -25 -15 -14 0 -25 -4 -25 -10 0 -5 -8 -10 -17 -10 -14 1 -11 6 12
26 l30 25 -55 -4 c-30 -2 -63 -8 -72 -12 -11 -4 -18 -3 -18 4 0 14 -16 13 -62
-3z m-95 -35 c-3 -14 -20 -23 -55 -31 -27 -7 -51 -10 -54 -7 -10 9 37 29 57
24 12 -3 23 2 29 14 14 25 30 25 23 0z m197 2 c0 -7 12 -13 28 -13 20 0 23 -3
13 -9 -11 -7 -9 -10 10 -14 13 -2 5 -2 -18 0 -28 3 -43 0 -43 -7 0 -6 -4 -9
-10 -5 -5 3 -7 12 -3 20 4 11 1 13 -13 8 -16 -6 -17 -5 -6 9 10 13 10 17 0 21
-7 2 -1 4 14 3 16 0 28 -7 28 -13z m195 -3 c15 -6 9 -9 -27 -9 -25 -1 -48 -5
-50 -10 -1 -4 -12 -5 -23 -1 -19 8 -19 8 5 18 30 13 68 14 95 2z m-308 -6 c-3
-3 -12 -4 -19 -1 -8 3 -5 6 6 6 11 1 17 -2 13 -5z m360 -10 c-3 -3 -12 -4 -19
-1 -8 3 -5 6 6 6 11 1 17 -2 13 -5z m343 -14 c11 -7 8 -10 -15 -9 -16 0 -39 4
-50 9 -16 7 -14 9 15 9 19 0 42 -4 50 -9z m-435 -10 c4 -6 -9 -10 -32 -9 -38
1 -38 1 -8 9 17 4 31 8 32 9 1 0 5 -3 8 -9z m-88 -26 c-3 -3 -12 -4 -19 -1 -8
3 -5 6 6 6 11 1 17 -2 13 -5z m188 -44 c13 -6 5 -7 -25 -3 -25 3 -47 7 -49 9
-9 8 55 2 74 -6z m-46 -34 c-12 -10 -59 -15 -59 -6 0 5 14 10 32 10 17 0 29
-2 27 -4z m-844 -16 c-3 -5 -12 -10 -18 -10 -7 0 -6 4 3 10 19 12 23 12 15 0z
m-215 -44 c0 -2 -7 -7 -16 -10 -8 -3 -12 -2 -9 4 6 10 25 14 25 6z m1010 -25
c0 -5 -11 -11 -25 -13 -14 -3 -25 -3 -25 -1 0 3 34 19 48 22 1 1 2 -3 2 -8z
m23 -158 c-7 -2 -21 -2 -30 0 -10 3 -4 5 12 5 17 0 24 -2 18 -5z m-65 -40
c-10 -2 -28 -2 -40 0 -13 2 -5 4 17 4 22 1 32 -1 23 -4z m-1277 -56 c-8 -8
-11 -7 -11 4 0 20 13 34 18 19 3 -7 -1 -17 -7 -23z m-109 -39 c4 -12 -30 -53
-38 -45 -3 2 0 16 5 31 11 27 27 34 33 14z m141 -8 c-6 -22 -31 -46 -39 -37
-7 6 25 57 36 57 5 0 6 -9 3 -20z m-203 -69 c-11 -21 -30 -37 -30 -25 0 8 30
44 37 44 2 0 -1 -9 -7 -19z m530 4 c0 -6 -73 -25 -78 -20 -2 2 11 8 29 14 41
11 49 12 49 6z m-500 -25 c0 -5 -5 -10 -11 -10 -5 0 -7 5 -4 10 3 6 8 10 11
10 2 0 4 -4 4 -10z m25 -20 c3 -5 1 -10 -4 -10 -6 0 -11 5 -11 10 0 6 2 10 4
10 3 0 8 -4 11 -10z m95 -7 c0 -7 -4 -13 -10 -13 -5 0 -10 5 -10 10 0 6 -13 4
-30 -5 -16 -9 -30 -13 -30 -11 0 8 50 33 66 33 8 0 14 -6 14 -14z m235 7 c-3
-5 -14 -10 -23 -10 -15 0 -15 2 -2 10 20 13 33 13 25 0z m-445 -15 c-7 -8 -18
-15 -24 -15 -6 0 -2 7 8 15 25 19 32 19 16 0z m280 -10 c-6 -8 -9 -18 -6 -24
3 -5 -10 -9 -29 -9 -19 0 -41 -7 -50 -16 -15 -14 -45 -12 -45 3 0 10 44 29
139 60 2 0 -2 -6 -9 -14z m-320 -10 c0 -9 -9 -15 -22 -15 -21 0 -21 0 -2 15
24 18 24 18 24 0z m385 -15 c-3 -5 -14 -10 -23 -9 -14 0 -13 2 3 9 27 11 27
11 20 0z m90 0 c-3 -5 -10 -10 -16 -10 -5 0 -9 5 -9 10 0 6 7 10 16 10 8 0 12
-4 9 -10z m-195 -30 c0 -5 -5 -10 -11 -10 -5 0 -7 5 -4 10 3 6 8 10 11 10 2 0
4 -4 4 -10z m1325 -200 c3 -5 1 -10 -4 -10 -6 0 -11 5 -11 10 0 6 2 10 4 10 3
0 8 -4 11 -10z m-984 -240 c5 0 9 -4 9 -10 0 -5 -7 -10 -15 -10 -10 0 -15 9
-14 28 1 16 3 20 6 10 2 -10 9 -18 14 -18z m-470 -367 c-10 -17 -10 -16 -11 3
0 23 13 41 18 25 2 -6 -1 -18 -7 -28z m2089 -103 c0 -18 -3 -19 -20 -10 -22
12 -18 30 6 30 8 0 14 -9 14 -20z m-2300 -385 c-7 -9 -15 -13 -18 -10 -3 2 1
11 8 20 7 9 15 13 18 10 3 -2 -1 -11 -8 -20z m-80 -860 c0 -8 -2 -15 -4 -15
-2 0 -6 7 -10 15 -3 8 -1 15 4 15 6 0 10 -7 10 -15z m2473 0 c48 -3 98 -10
110 -17 12 -7 27 -12 32 -13 22 -1 75 -31 75 -42 0 -7 6 -13 13 -13 12 0 67
-53 67 -65 0 -4 9 -14 21 -23 21 -18 18 -52 -5 -52 -13 0 -30 -29 -42 -70 -3
-14 -18 -36 -33 -50 -14 -14 -36 -38 -48 -55 -15 -20 -25 -26 -30 -19 -9 13
-68 25 -135 27 -27 1 -48 5 -48 10 0 4 -6 7 -13 7 -7 0 -20 9 -30 21 -12 14
-24 18 -39 13 -27 -8 -133 43 -149 73 -7 13 -16 23 -21 23 -4 0 -8 7 -8 15 0
8 -13 28 -30 45 -16 17 -30 37 -30 44 0 8 -6 19 -14 25 -8 7 -16 29 -18 51 -3
38 -2 40 42 60 39 18 58 20 145 15 55 -3 140 -8 188 -10z m-2536 -72 c-3 -10
-5 -2 -5 17 0 19 2 27 5 18 2 -10 2 -26 0 -35z m2148 -154 c26 -28 33 -39 20
-34 -11 4 -27 9 -35 12 -13 4 -60 65 -60 78 0 12 37 -15 75 -56z m445 -194 c0
-9 -6 -12 -15 -9 -8 4 -12 10 -9 15 8 14 24 10 24 -6z m-780 -455 c0 -5 -4
-10 -10 -10 -5 0 -10 5 -10 10 0 6 5 10 10 10 6 0 10 -4 10 -10z m-100 -154
c0 -7 -17 -21 -37 -33 -32 -17 -45 -18 -83 -10 -25 5 -40 11 -35 14 137 52
155 55 155 29z m-830 -187 c0 -5 -4 -9 -10 -9 -5 0 -10 7 -10 16 0 8 5 12 10
9 6 -3 10 -10 10 -16z m902 -421 c-7 -7 -12 -8 -12 -2 0 14 12 26 19 19 2 -3
-1 -11 -7 -17z m335 -130 c-3 -8 -6 -5 -6 6 -1 11 2 17 5 13 3 -3 4 -12 1 -19z
m-1086 -268 c5 0 9 -4 9 -10 0 -15 -20 -12 -38 7 -16 16 -16 16 1 10 10 -4 23
-7 28 -7z m-21 -41 c0 -5 8 -9 18 -10 11 -1 8 -4 -8 -8 -18 -5 -27 -3 -32 8
-11 25 -9 31 7 25 8 -4 15 -10 15 -15z m60 -50 c0 -4 -10 -9 -22 -12 -18 -5
-19 -9 -9 -21 7 -8 10 -20 6 -25 -3 -7 0 -8 9 -5 9 3 16 2 16 -4 0 -6 -6 -12
-12 -15 -10 -3 -10 -7 0 -19 10 -13 10 -17 -4 -22 -26 -10 -32 -7 -27 14 3 12
-1 22 -10 26 -12 4 -15 14 -11 34 4 15 1 31 -5 34 -22 14 -10 24 29 23 22 -1
40 -5 40 -8z m174 -20 c-8 -13 -21 -11 -27 5 -4 10 0 12 14 9 10 -3 16 -9 13
-14z m-155 -46 c-1 -41 -2 -44 -8 -18 -7 28 -4 65 5 65 2 0 3 -21 3 -47z m301
37 c0 -5 -4 -10 -10 -10 -5 0 -10 5 -10 10 0 6 5 10 10 10 6 0 10 -4 10 -10z
m-250 -10 c0 -5 -4 -10 -10 -10 -5 0 -10 5 -10 10 0 6 5 10 10 10 6 0 10 -4
10 -10z m0 -30 c0 -5 -4 -10 -10 -10 -5 0 -10 5 -10 10 0 6 5 10 10 10 6 0 10
-4 10 -10z m57 -52 c-3 -7 -5 -2 -5 12 0 14 2 19 5 13 2 -7 2 -19 0 -25z m-47
-98 c13 -8 13 -10 -2 -10 -9 0 -20 5 -23 10 -8 13 5 13 25 0z m-1280 -225 c0
-8 -9 -15 -19 -15 -11 0 -27 -3 -37 -7 -12 -4 -15 -3 -10 6 7 11 41 29 59 30
4 1 7 -6 7 -14z m-146 -124 c-9 -29 -18 -51 -20 -48 -2 2 3 27 12 56 8 29 17
51 19 49 2 -2 -3 -28 -11 -57z m-27 -83 c-3 -8 -6 -5 -6 6 -1 11 2 17 5 13 3
-3 4 -12 1 -19z m-7 -38 c0 -5 -5 -10 -11 -10 -5 0 -7 5 -4 10 3 6 8 10 11 10
2 0 4 -4 4 -10z m-43 -182 c-3 -8 -6 -5 -6 6 -1 11 2 17 5 13 3 -3 4 -12 1
-19z m-10 -60 c-3 -8 -6 -5 -6 6 -1 11 2 17 5 13 3 -3 4 -12 1 -19z m-8 -246
c0 -76 2 -156 5 -178 5 -27 4 -33 -3 -19 -10 22 -16 151 -13 263 4 126 12 78
11 -66z m2001 102 c0 -8 -4 -12 -10 -9 -5 3 -10 10 -10 16 0 5 5 9 10 9 6 0
10 -7 10 -16z m-2000 -454 l-7 -45 -2 41 c0 22 2 44 6 47 10 11 11 5 3 -43z
m0 -150 c0 -11 -4 -20 -10 -20 -5 0 -10 9 -10 20 0 11 5 20 10 20 6 0 10 -9
10 -20z m10 -70 c0 -19 -17 -36 -27 -26 -3 3 -2 17 1 31 7 28 26 25 26 -5z
m1975 -1530 c4 -6 -6 -10 -22 -11 -47 -1 -64 -7 -88 -29 l-24 -22 6 21 c3 12
17 28 32 36 30 17 87 20 96 5z m40 -31 c11 -17 -1 -21 -15 -4 -8 9 -8 15 -2
15 6 0 14 -5 17 -11z m-25 -112 c0 -12 -39 -37 -56 -37 -5 0 48 49 54 50 1 0
2 -6 2 -13z m-4610 -617 c0 -5 -2 -10 -4 -10 -3 0 -8 5 -11 10 -3 6 -1 10 4
10 6 0 11 -4 11 -10z m4830 -70 c0 -5 -5 -10 -11 -10 -5 0 -7 5 -4 10 3 6 8
10 11 10 2 0 4 -4 4 -10z m510 6 c0 -3 -4 -8 -10 -11 -5 -3 -10 -1 -10 4 0 6
5 11 10 11 6 0 10 -2 10 -4z m-495 -56 c3 -5 1 -10 -4 -10 -6 0 -11 5 -11 10
0 6 2 10 4 10 3 0 8 -4 11 -10z m85 -4 c0 -3 -4 -8 -10 -11 -5 -3 -10 -1 -10
4 0 6 5 11 10 11 6 0 10 -2 10 -4z m500 -36 c0 -5 -2 -10 -4 -10 -3 0 -8 5
-11 10 -3 6 -1 10 4 10 6 0 11 -4 11 -10z m-1360 -30 c0 -5 -5 -10 -11 -10 -5
0 -7 5 -4 10 3 6 8 10 11 10 2 0 4 -4 4 -10z m735 -10 c3 -5 1 -10 -4 -10 -6
0 -11 5 -11 10 0 6 2 10 4 10 3 0 8 -4 11 -10z m455 6 c0 -3 -4 -8 -10 -11 -5
-3 -10 -1 -10 4 0 6 5 11 10 11 6 0 10 -2 10 -4z m-500 -10 c0 -3 -4 -8 -10
-11 -5 -3 -10 -1 -10 4 0 6 5 11 10 11 6 0 10 -2 10 -4z m15 -46 c3 -5 1 -10
-4 -10 -6 0 -11 5 -11 10 0 6 2 10 4 10 3 0 8 -4 11 -10z m-2481 -21 c-3 -5
-10 -7 -15 -3 -5 3 -7 10 -3 15 3 5 10 7 15 3 5 -3 7 -10 3 -15z m33 -1 c-3
-8 -6 -5 -6 6 -1 11 2 17 5 13 3 -3 4 -12 1 -19z m43 18 c0 -3 -4 -8 -10 -11
-5 -3 -10 -1 -10 4 0 6 5 11 10 11 6 0 10 -2 10 -4z m1740 -20 c0 -3 -4 -8
-10 -11 -5 -3 -10 -1 -10 4 0 6 5 11 10 11 6 0 10 -2 10 -4z m-40 -10 c0 -3
-4 -8 -10 -11 -5 -3 -10 -1 -10 4 0 6 5 11 10 11 6 0 10 -2 10 -4z m680 -16
c0 -5 -5 -10 -11 -10 -5 0 -7 5 -4 10 3 6 8 10 11 10 2 0 4 -4 4 -10z m-2867
-15 c-3 -9 -8 -14 -10 -11 -3 3 -2 9 2 15 9 16 15 13 8 -4z m2737 11 c0 -3 -4
-8 -10 -11 -5 -3 -10 -1 -10 4 0 6 5 11 10 11 6 0 10 -2 10 -4z m220 -6 c0 -5
-2 -10 -4 -10 -3 0 -8 5 -11 10 -3 6 -1 10 4 10 6 0 11 -4 11 -10z m40 0 c0
-5 -5 -10 -11 -10 -5 0 -7 5 -4 10 3 6 8 10 11 10 2 0 4 -4 4 -10z m-3055 -10
c3 -5 -1 -10 -9 -10 -9 0 -16 5 -16 10 0 6 4 10 9 10 6 0 13 -4 16 -10z m1125
0 c0 -5 -4 -10 -10 -10 -5 0 -10 5 -10 10 0 6 5 10 10 10 6 0 10 -4 10 -10z
m1090 -14 c0 -3 -4 -8 -10 -11 -5 -3 -10 -1 -10 4 0 6 5 11 10 11 6 0 10 -2
10 -4z m190 -16 c0 -5 -4 -10 -10 -10 -5 0 -10 5 -10 10 0 6 5 10 10 10 6 0
10 -4 10 -10z m540 0 c0 -5 -4 -10 -10 -10 -5 0 -10 5 -10 10 0 6 5 10 10 10
6 0 10 -4 10 -10z m-2540 -10 c0 -5 -5 -10 -11 -10 -5 0 -7 5 -4 10 3 6 8 10
11 10 2 0 4 -4 4 -10z m1340 -14 c0 -3 -4 -8 -10 -11 -5 -3 -10 -1 -10 4 0 6
5 11 10 11 6 0 10 -2 10 -4z m490 -6 c0 -5 -5 -10 -11 -10 -5 0 -7 5 -4 10 3
6 8 10 11 10 2 0 4 -4 4 -10z m190 -20 c0 -5 -2 -10 -4 -10 -3 0 -8 5 -11 10
-3 6 -1 10 4 10 6 0 11 -4 11 -10z m630 -10 c0 -5 -4 -10 -10 -10 -5 0 -10 5
-10 10 0 6 5 10 10 10 6 0 10 -4 10 -10z m-2460 -14 c0 -3 -4 -8 -10 -11 -5
-3 -10 -1 -10 4 0 6 5 11 10 11 6 0 10 -2 10 -4z m1805 -26 c3 -5 1 -10 -4
-10 -6 0 -11 5 -11 10 0 6 2 10 4 10 3 0 8 -4 11 -10z m455 6 c0 -3 -4 -8 -10
-11 -5 -3 -10 -1 -10 4 0 6 5 11 10 11 6 0 10 -2 10 -4z m40 -6 c0 -5 -2 -10
-4 -10 -3 0 -8 5 -11 10 -3 6 -1 10 4 10 6 0 11 -4 11 -10z m-2150 -4 c0 -3
-4 -8 -10 -11 -5 -3 -10 -1 -10 4 0 6 5 11 10 11 6 0 10 -2 10 -4z m-130 -16
c0 -5 -4 -10 -10 -10 -5 0 -10 5 -10 10 0 6 5 10 10 10 6 0 10 -4 10 -10z
m2350 -24 c0 -3 -4 -8 -10 -11 -5 -3 -10 -1 -10 4 0 6 5 11 10 11 6 0 10 -2
10 -4z m85 -6 c3 -5 1 -10 -4 -10 -6 0 -11 5 -11 10 0 6 2 10 4 10 3 0 8 -4
11 -10z m45 -10 c0 -5 -2 -10 -4 -10 -3 0 -8 5 -11 10 -3 6 -1 10 4 10 6 0 11
-4 11 -10z m-1650 -4 c0 -3 -4 -8 -10 -11 -5 -3 -10 -1 -10 4 0 6 5 11 10 11
6 0 10 -2 10 -4z m1400 -26 c0 -5 -5 -10 -11 -10 -5 0 -7 5 -4 10 3 6 8 10 11
10 2 0 4 -4 4 -10z m90 0 c0 -5 -4 -10 -10 -10 -5 0 -10 5 -10 10 0 6 5 10 10
10 6 0 10 -4 10 -10z m815 -30 c3 -5 1 -10 -4 -10 -6 0 -11 5 -11 10 0 6 2 10
4 10 3 0 8 -4 11 -10z m-705 -30 c0 -5 -4 -10 -10 -10 -5 0 -10 5 -10 10 0 6
5 10 10 10 6 0 10 -4 10 -10z m1765 -22 c2 -7 -1 -53 -8 -103 -10 -75 -15 -90
-31 -93 -17 -4 -18 0 -12 29 4 19 9 57 12 84 3 28 7 60 10 73 5 24 22 30 29
10z m-4105 -28 c0 -5 -4 -10 -10 -10 -5 0 -10 5 -10 10 0 6 5 10 10 10 6 0 10
-4 10 -10z m2360 6 c0 -3 -4 -8 -10 -11 -5 -3 -10 -1 -10 4 0 6 5 11 10 11 6
0 10 -2 10 -4z m-250 -46 c0 -5 -4 -10 -10 -10 -5 0 -10 5 -10 10 0 6 5 10 10
10 6 0 10 -4 10 -10z m90 0 c0 -5 -4 -10 -10 -10 -5 0 -10 5 -10 10 0 6 5 10
10 10 6 0 10 -4 10 -10z m-1320 -84 c0 -3 -4 -8 -10 -11 -5 -3 -10 -1 -10 4 0
6 5 11 10 11 6 0 10 -2 10 -4z m1445 -16 c3 -5 1 -10 -4 -10 -6 0 -11 5 -11
10 0 6 2 10 4 10 3 0 8 -4 11 -10z m-1735 -20 c0 -5 -2 -10 -4 -10 -3 0 -8 5
-11 10 -3 6 -1 10 4 10 6 0 11 -4 11 -10z m410 0 c0 -5 -4 -10 -10 -10 -5 0
-10 5 -10 10 0 6 5 10 10 10 6 0 10 -4 10 -10z m-100 -4 c0 -3 -4 -8 -10 -11
-5 -3 -10 -1 -10 4 0 6 5 11 10 11 6 0 10 -2 10 -4z m-290 -36 c0 -5 -5 -10
-11 -10 -5 0 -7 5 -4 10 3 6 8 10 11 10 2 0 4 -4 4 -10z m1490 -30 c0 -5 -5
-10 -11 -10 -5 0 -7 5 -4 10 3 6 8 10 11 10 2 0 4 -4 4 -10z m90 -4 c0 -3 -4
-8 -10 -11 -5 -3 -10 -1 -10 4 0 6 5 11 10 11 6 0 10 -2 10 -4z m90 -6 c0 -5
-2 -10 -4 -10 -3 0 -8 5 -11 10 -3 6 -1 10 4 10 6 0 11 -4 11 -10z m-790 -4
c0 -3 -4 -8 -10 -11 -5 -3 -10 -1 -10 4 0 6 5 11 10 11 6 0 10 -2 10 -4z m650
-80 c0 -3 -4 -8 -10 -11 -5 -3 -10 -1 -10 4 0 6 5 11 10 11 6 0 10 -2 10 -4z
m40 -6 c0 -5 -5 -10 -11 -10 -5 0 -7 5 -4 10 3 6 8 10 11 10 2 0 4 -4 4 -10z
m50 0 c0 -5 -5 -10 -11 -10 -5 0 -7 5 -4 10 3 6 8 10 11 10 2 0 4 -4 4 -10z
m-1410 -180 c0 -5 -4 -10 -10 -10 -5 0 -10 5 -10 10 0 6 5 10 10 10 6 0 10 -4
10 -10z m-50 -94 c0 -3 -4 -8 -10 -11 -5 -3 -10 -1 -10 4 0 6 5 11 10 11 6 0
10 -2 10 -4z m80 -96 c0 -5 -5 -10 -11 -10 -5 0 -7 5 -4 10 3 6 8 10 11 10 2
0 4 -4 4 -10z m-1209 -233 c-1 -12 -15 -9 -19 4 -3 6 1 10 8 8 6 -3 11 -8 11
-12z m-2406 -907 c3 -5 0 -10 -9 -10 -8 0 -22 -3 -32 -7 -16 -6 -17 -5 -4 10
17 19 36 22 45 7z m-10 -40 c-3 -5 -10 -10 -16 -10 -5 0 -9 5 -9 10 0 6 7 10
16 10 8 0 12 -4 9 -10z m-114 -2313 c-13 -13 -15 1 -4 30 7 17 8 17 11 -1 2
-10 -1 -23 -7 -29z"/>
<path d="M11130 14206 c0 -7 -3 -34 -6 -60 -5 -31 -3 -46 5 -46 6 0 11 7 11
15 0 8 5 24 11 34 13 20 5 71 -11 71 -6 0 -10 -6 -10 -14z"/>
<path d="M6340 13654 c1 -5 7 -20 15 -34 13 -24 14 -24 15 -4 0 12 -7 27 -15
34 -8 7 -15 9 -15 4z"/>
<path d="M6390 13569 c0 -5 5 -7 10 -4 6 3 10 8 10 11 0 2 -4 4 -10 4 -5 0
-10 -5 -10 -11z"/>
<path d="M5770 13480 c0 -5 5 -10 10 -10 6 0 10 5 10 10 0 6 -4 10 -10 10 -5
0 -10 -4 -10 -10z"/>
<path d="M5121 13084 c0 -11 3 -14 6 -6 3 7 2 16 -1 19 -3 4 -6 -2 -5 -13z"/>
<path d="M6845 12790 c3 -5 10 -10 16 -10 5 0 9 5 9 10 0 6 -7 10 -16 10 -8 0
-12 -4 -9 -10z"/>
<path d="M5682 12543 c8 -10 7 -12 -5 -7 -8 3 -25 1 -36 -6 -14 -7 -21 -7 -21
-1 0 17 -64 0 -79 -20 -7 -11 -22 -19 -33 -19 -10 0 -31 -11 -46 -25 -15 -14
-36 -25 -47 -25 -21 0 -55 -31 -55 -50 0 -6 -9 -10 -20 -10 -13 0 -18 -5 -14
-15 8 -19 -3 -19 -23 1 -13 13 -17 13 -24 2 -5 -7 -9 -21 -9 -30 0 -22 -36
-85 -69 -122 -18 -19 -22 -30 -13 -33 19 -7 14 -34 -12 -54 -27 -21 -36 -46
-26 -74 7 -19 7 -19 14 3 4 12 13 22 21 22 10 0 12 -11 8 -42 l-5 -43 28 35
c16 19 41 47 57 61 15 15 27 31 27 36 0 5 16 15 35 23 19 8 35 17 35 22 0 16
77 40 140 43 36 2 70 4 75 5 6 1 18 2 28 1 23 -1 17 -26 -6 -26 -8 0 -19 -4
-24 -9 -4 -5 15 -6 45 -3 82 9 59 -27 -38 -57 -78 -25 -171 -69 -227 -107 -65
-44 -163 -148 -170 -180 -3 -18 -15 -30 -39 -39 -46 -19 -43 -29 8 -23 29 4
39 3 34 -5 -10 -16 -6 -15 58 14 31 14 60 23 66 19 5 -3 26 3 47 14 39 19 85
25 183 22 l55 -1 -35 -17 c-19 -10 -36 -21 -38 -25 -2 -4 -15 -8 -28 -8 -13 0
-24 -3 -24 -8 0 -11 -49 -29 -97 -37 -27 -4 -43 -12 -43 -21 0 -8 4 -14 8 -14
5 0 8 -10 8 -22 -1 -23 0 -23 131 -22 77 1 145 6 165 13 73 27 162 78 191 109
17 17 36 32 42 32 20 1 120 104 159 164 24 37 18 120 -10 141 -16 12 -17 17
-6 34 17 29 15 33 -10 26 -19 -6 -21 -5 -10 6 6 7 12 21 12 30 0 10 -6 20 -12
22 -10 4 -10 6 0 6 15 1 16 31 1 31 -7 0 -8 7 -4 18 22 54 23 81 1 97 -11 9
-15 13 -8 10 7 -4 12 1 12 14 0 14 -5 19 -15 15 -8 -4 -15 -1 -15 5 0 6 5 11
10 11 6 0 10 5 10 10 0 6 -6 10 -14 10 -7 0 -25 11 -40 25 -15 14 -36 25 -47
25 -11 0 -17 4 -14 10 4 6 -10 8 -39 4 -25 -4 -53 -3 -63 1 -15 7 -13 9 12 15
20 5 4 7 -47 7 -62 -1 -75 -4 -66 -14z m315 -185 c-3 -8 -6 -5 -6 6 -1 11 2
17 5 13 3 -3 4 -12 1 -19z m-750 -244 c-3 -3 -12 -4 -19 -1 -8 3 -5 6 6 6 11
1 17 -2 13 -5z m-42 -14 c-3 -5 -12 -10 -18 -10 -7 0 -6 4 3 10 19 12 23 12
15 0z m415 -20 c19 -10 19 -11 1 -29 -10 -10 -37 -22 -60 -26 -23 -4 -41 -10
-41 -14 0 -5 -19 -17 -42 -27 -24 -10 -63 -34 -87 -52 -36 -28 -120 -72 -137
-72 -12 0 35 65 71 98 104 97 239 152 295 122z m-370 -234 c0 -2 -7 -7 -16
-10 -8 -3 -12 -2 -9 4 6 10 25 14 25 6z"/>
<path d="M5431 12471 c-8 -5 -9 -11 -3 -15 5 -3 12 1 16 9 6 17 6 18 -13 6z"/>
<path d="M5186 12341 c-4 -6 -2 -11 5 -11 6 0 0 -15 -15 -34 -27 -37 -31 -46
-18 -46 15 0 51 75 43 89 -6 9 -11 10 -15 2z"/>
<path d="M5226 12315 c-9 -9 -16 -22 -16 -28 0 -6 10 -2 22 11 12 12 19 24 16
27 -3 3 -13 -1 -22 -10z"/>
<path d="M5142 12155 l-12 -26 24 18 c13 10 22 21 19 26 -8 14 -20 7 -31 -18z"/>
<path d="M5162 11996 c7 -8 15 -12 17 -11 5 6 -10 25 -20 25 -5 0 -4 -6 3 -14z"/>
<path d="M5415 10870 c3 -5 11 -10 16 -10 6 0 7 5 4 10 -3 6 -11 10 -16 10 -6
0 -7 -4 -4 -10z"/>
<path d="M4966 10564 c-4 -14 -4 -35 0 -47 6 -19 5 -20 -10 -8 -14 12 -16 10
-16 -13 0 -23 4 -26 35 -26 25 0 35 4 35 16 0 8 -5 12 -10 9 -16 -10 -34 47
-21 67 13 21 14 28 2 28 -5 0 -12 -12 -15 -26z"/>
<path d="M5665 10390 c-3 -5 -1 -10 4 -10 6 0 11 5 11 10 0 6 -2 10 -4 10 -3
0 -8 -4 -11 -10z"/>
<path d="M6291 10178 c-11 -29 -6 -38 21 -38 14 0 18 5 14 16 -3 9 -6 22 -6
30 0 22 -20 16 -29 -8z"/>
<path d="M5500 10031 c-18 -5 -24 -13 -22 -29 2 -16 -2 -22 -16 -22 -11 0 -23
-7 -26 -16 -9 -23 -7 -31 3 -15 6 10 17 0 42 -38 30 -45 38 -51 69 -51 30 -1
33 -2 19 -13 -15 -11 -15 -15 -3 -32 8 -10 14 -27 14 -37 0 -10 4 -18 8 -18 4
0 13 -13 19 -30 13 -33 33 -40 33 -11 0 23 31 52 37 34 3 -8 11 -5 24 8 19 19
19 20 1 47 -21 30 -36 63 -34 75 1 4 -7 7 -18 7 -21 0 -23 3 -36 55 -5 21 -8
25 -11 13 -3 -10 -11 -18 -19 -18 -10 0 -13 6 -9 19 4 12 0 21 -11 25 -12 5
-14 10 -5 19 8 10 7 17 -1 25 -13 13 -21 13 -58 3z m65 -131 c3 -5 -1 -10 -10
-10 -9 0 -13 5 -10 10 3 6 8 10 10 10 2 0 7 -4 10 -10z"/>
<path d="M5816 9203 c-6 -14 -5 -15 5 -6 7 7 10 15 7 18 -3 3 -9 -2 -12 -12z"/>
<path d="M6400 8473 c0 -29 12 -24 17 7 2 11 -2 20 -7 20 -6 0 -10 -12 -10
-27z"/>
<path d="M6560 8395 c0 -17 18 -19 38 -6 11 7 10 10 -3 15 -26 10 -35 7 -35
-9z"/>
<path d="M6508 8233 c12 -2 32 -2 45 0 12 2 2 4 -23 4 -25 0 -35 -2 -22 -4z"/>
<path d="M1585 2050 c3 -5 8 -10 11 -10 2 0 4 5 4 10 0 6 -5 10 -11 10 -5 0
-7 -4 -4 -10z"/>
</g>
</svg>
