<?xml version="1.0" encoding="UTF-8"?>
<svg version="1.1" xmlns="http://www.w3.org/2000/svg" width="200" height="200">
<path d="M0 0 C66 0 132 0 200 0 C200 66 200 132 200 200 C134 200 68 200 0 200 C0 134 0 68 0 0 Z " fill="#302C45" transform="translate(0,0)"/>
<path d="M0 0 C5.02062629 0.08430156 8.52699553 2.10602047 12.25 5.375 C16.08747344 9.93130853 16.84155746 14.55469385 17.25 20.375 C18.24 20.705 19.23 21.035 20.25 21.375 C20.16298828 20.5396875 20.16298828 20.5396875 20.07421875 19.6875 C19.7492961 14.19166552 20.49444154 10.6210598 23.703125 6.10546875 C26.67010894 2.78634278 29.72615484 0.80808586 34.23046875 0.03515625 C40.41994599 -0.26414149 45.25040891 1.69352568 50 5.6875 C54.01377853 10.48173546 55.33673731 14.05319246 55.6875 20.25 C56.09528759 26.81538021 57.48635581 31.91842739 62.5 36.375 C63.0775 36.705 63.655 37.035 64.25 37.375 C64.31058594 36.60800781 64.37117188 35.84101562 64.43359375 35.05078125 C65.25 32.375 65.25 32.375 67.53515625 30.79296875 C68.45167969 30.38691406 69.36820312 29.98085938 70.3125 29.5625 C71.69115234 28.93408203 71.69115234 28.93408203 73.09765625 28.29296875 C73.80792969 27.99003906 74.51820313 27.68710937 75.25 27.375 C75.34908128 32.5527593 75.42156806 37.72996347 75.46972656 42.90844727 C75.48980786 44.66896175 75.51707879 46.42940982 75.55175781 48.18969727 C75.60043112 50.72428802 75.62300305 53.25799495 75.640625 55.79296875 C75.66127014 56.57649216 75.68191528 57.36001556 75.70318604 58.1672821 C75.70471203 61.90691887 75.3932935 64.14010239 73.42871094 67.3605957 C70.74164474 69.84501784 68.84884015 70.12962454 65.25 70.375 C65.25 71.035 65.25 71.695 65.25 72.375 C65.971875 72.58125 66.69375 72.7875 67.4375 73 C71.70348939 75.08559481 73.94307747 78.4457334 76.5625 82.3125 C78.03131696 86.71895087 77.65641301 90.36864396 75.9375 94.625 C72.94872493 99.49559641 70.10843689 101.0015554 64.875 103.3125 C56.59849596 107.22381388 50.62544152 112.92052408 44.25 119.375 C43.25830246 120.36637577 42.26612626 121.35727301 41.2734375 122.34765625 C39.4261269 124.19465279 37.58649143 126.04840402 35.75 127.90625 C32.94967625 130.67156971 30.03489096 133.25075802 27.04296875 135.8046875 C24.30880367 138.19931574 21.78739854 140.7741665 19.25 143.375 C15.1510653 141.76470422 12.48796843 138.79680725 9.5 135.6875 C5.5919496 131.69449198 1.63857684 127.89610348 -2.62890625 124.28515625 C-4.89163174 122.24745318 -7.00013988 120.10281012 -9.12158203 117.92016602 C-15.82141662 111.04171095 -22.33973214 105.96377346 -31.0625 101.8125 C-34.98791233 99.9168428 -37.43885727 98.19340973 -39.75 94.375 C-41.16099127 90.14202618 -41.69400487 86.47452951 -39.80859375 82.28125 C-37.36303841 78.17210372 -34.81750886 75.01338412 -30.75 72.375 C-30.09 72.375 -29.43 72.375 -28.75 72.375 C-28.75 71.715 -28.75 71.055 -28.75 70.375 C-29.471875 70.49875 -30.19375 70.6225 -30.9375 70.75 C-34.40608173 70.28752244 -35.57926484 68.93008622 -37.70248413 66.23431396 C-39.60895254 62.85038114 -39.36410726 59.49042135 -39.23828125 55.6953125 C-39.23120651 54.88254852 -39.22413177 54.06978455 -39.21684265 53.23239136 C-39.18900674 50.65396377 -39.12629411 48.07776338 -39.0625 45.5 C-39.03740291 43.74482318 -39.01459221 41.98961209 -38.99414062 40.234375 C-38.93921623 35.94706753 -38.85302347 31.66141044 -38.75 27.375 C-37.09418275 28.08120155 -35.45048614 28.81587238 -33.8125 29.5625 C-32.89597656 29.96855469 -31.97945312 30.37460937 -31.03515625 30.79296875 C-28.75 32.375 -28.75 32.375 -27.93359375 35.05078125 C-27.87300781 35.81777344 -27.81242187 36.58476563 -27.75 37.375 C-23.61048313 34.46615031 -21.43359465 32.17324475 -19.75 27.375 C-19.58948949 25.2523869 -19.46842387 23.1266222 -19.375 21 C-18.92287343 13.21633078 -16.44179378 8.59299671 -10.6875 3.4375 C-6.72484613 0.65521111 -4.77989719 0.47798972 0 0 Z " fill="#EAEAE9" transform="translate(81.75,31.625)"/>
<path d="M0 0 C0 3 0 3 -1.5 5.75 C-3.25629334 9.55530223 -3.4448034 11.84850164 -3 16 C-0.93823964 21.36057693 1.44709674 23.80044305 6.59375 26.21875 C7.5528125 26.6415625 8.511875 27.064375 9.5 27.5 C16.85821153 31.1164446 22.28318142 36.27141034 28 42 C29.33417969 43.3303125 29.33417969 43.3303125 30.6953125 44.6875 C32.36594581 46.36324228 34.03277969 48.04278326 35.6953125 49.7265625 C38.3744224 52.36934549 41.18030572 54.81719 44.0390625 57.26171875 C47.5177298 60.34539793 50.75322563 63.67551028 54 67 C57.71268094 65.45872649 59.98115698 63.19156766 62.75 60.3125 C65.68598169 57.31241391 68.60628954 54.39678187 71.8125 51.6875 C75.58877451 48.47038987 79.02584801 44.97196026 82.5 41.4375 C89.89160406 33.98503379 96.72618005 28.86034861 106.36328125 24.4921875 C110.2197877 22.30969052 111.61515315 20.15454056 113 16 C113.40291856 10.66132906 112.50008846 7.67407842 110 3 C110.33 2.34 110.66 1.68 111 1 C115.56048012 4.61251516 119.01665146 7.98797445 122 13 C118.165535 21.74492782 109.12833698 27.67583986 101.69824219 33.28149414 C98.92565962 35.3894429 96.95104391 37.07343413 95 40 C95.56847656 40.44988281 96.13695312 40.89976562 96.72265625 41.36328125 C102.94719537 46.54866526 107.05855708 51.95289 111 59 C111.52464844 59.91523438 112.04929687 60.83046875 112.58984375 61.7734375 C117.84801913 71.54053172 120.83184065 82.15920323 123 93 C78.12 93 33.24 93 -13 93 C-8.36257764 74.45031056 -8.36257764 74.45031056 -5.625 68.625 C-5.32464844 67.96564453 -5.02429687 67.30628906 -4.71484375 66.62695312 C0.29187883 55.84243043 6.57607635 47.35035227 15 39 C14.0821875 38.21496094 13.164375 37.42992187 12.21875 36.62109375 C-6.90054439 20.2588136 -6.90054439 20.2588136 -12 15 C-9.87209933 8.42285246 -5.45517519 4.05241586 0 0 Z " fill="#0F0D11" transform="translate(45,107)"/>
<path d="M0 0 C0.66 0.33 1.32 0.66 2 1 C1.38125 1.66 0.7625 2.32 0.125 3 C-4.29046347 9.23359548 -4.28098134 16.13288148 -4.125 23.5 C-4.11597656 24.32242188 -4.10695313 25.14484375 -4.09765625 25.9921875 C-4.07436865 27.99492083 -4.03850959 29.99750154 -4 32 C-3.01 30.68 -2.02 29.36 -1 28 C1.96175123 28.61277612 3.38058783 29.25372522 6 31 C8.0495123 31.30836314 8.0495123 31.30836314 10.31616211 31.2746582 C11.6178257 31.28895622 11.6178257 31.28895622 12.94578552 31.30354309 C13.88019974 31.30263168 14.81461395 31.30172028 15.77734375 31.30078125 C16.74023819 31.30506638 17.70313263 31.3093515 18.69520569 31.31376648 C20.73193577 31.31951025 22.76868636 31.3200097 24.80541992 31.31567383 C27.92206831 31.31251564 31.037766 31.33596645 34.15429688 31.36132812 C36.1328113 31.36360128 38.11132828 31.36430454 40.08984375 31.36328125 C41.02223373 31.372491 41.95462372 31.38170074 42.91526794 31.39118958 C49.04153812 31.39156083 49.04153812 31.39156083 54 28 C56 27.9375 56 27.9375 58 29 C60.3125 31.8125 60.3125 31.8125 62 35 C61.60546875 37.19921875 61.60546875 37.19921875 61 39 C44.51205857 43.21403962 44.51205857 43.21403962 36.72265625 44.60546875 C34.97851961 44.84434602 34.97851961 44.84434602 34 46 C33.71450351 49.03623255 33.55131186 52.07257785 33.37890625 55.1171875 C33 58 33 58 31 61 C28 61.375 28 61.375 25 61 C22.73045369 57.59568053 22.63450051 55.83475798 22.375 51.8125 C22.30023438 50.72582031 22.22546875 49.63914063 22.1484375 48.51953125 C22.09945312 47.68808594 22.05046875 46.85664062 22 46 C16.24867004 44.24856618 10.46147988 43.02166995 4.5625 41.875 C3.64017578 41.69324219 2.71785156 41.51148438 1.76757812 41.32421875 C-0.4877747 40.88015965 -2.743623 40.43881982 -5 40 C-4.98031743 44.46253962 -4.92782564 48.92324829 -4.84741211 53.38500977 C-4.82449188 54.89662261 -4.80989865 56.40838926 -4.80444336 57.92016602 C-4.73725781 73.49170881 -1.22217476 85.50884515 9.875 96.9296875 C17.61891006 104.2052159 26.70677165 108.50012738 37.41015625 108.33984375 C48.39847523 106.89793764 57.8291046 100.08484177 64.75 91.75 C69.42810571 85.38560036 73.35298278 77.97987901 74 70 C76.80828805 70.08259671 78.52400492 70.55775518 80.59765625 72.484375 C84.13291883 76.54949266 86.80438804 79.88739081 87.3125 85.375 C86.86003054 90.62364574 85.03562831 94.59741143 81 98 C78.89382374 99.01902598 76.76535798 99.99237563 74.625 100.9375 C66.34849596 104.84881388 60.37544152 110.54552408 54 117 C53.00830246 117.99137577 52.01612626 118.98227301 51.0234375 119.97265625 C49.1761269 121.81965279 47.33649143 123.67340402 45.5 125.53125 C42.69967625 128.29656971 39.78489096 130.87575802 36.79296875 133.4296875 C34.05880367 135.82431574 31.53739854 138.3991665 29 141 C24.9010653 139.38970422 22.23796843 136.42180725 19.25 133.3125 C15.3419496 129.31949198 11.38857684 125.52110348 7.12109375 121.91015625 C4.85836826 119.87245318 2.74986012 117.72781012 0.62841797 115.54516602 C-6.07141662 108.66671095 -12.58973214 103.58877346 -21.3125 99.4375 C-25.23791233 97.5418428 -27.68885727 95.81840973 -30 92 C-31.41099127 87.76702618 -31.94400487 84.09952951 -30.05859375 79.90625 C-27.61303841 75.79710372 -25.06750886 72.63838412 -21 70 C-20.34 70 -19.68 70 -19 70 C-19 69.34 -19 68.68 -19 68 C-19.721875 68.12375 -20.44375 68.2475 -21.1875 68.375 C-24.65608173 67.91252244 -25.82926484 66.55508622 -27.95248413 63.85931396 C-29.85895254 60.47538114 -29.61410726 57.11542135 -29.48828125 53.3203125 C-29.48120651 52.50754852 -29.47413177 51.69478455 -29.46684265 50.85739136 C-29.43900674 48.27896377 -29.37629411 45.70276338 -29.3125 43.125 C-29.28740291 41.36982318 -29.26459221 39.61461209 -29.24414062 37.859375 C-29.18921623 33.57206753 -29.10302347 29.28641044 -29 25 C-27.34418275 25.70620155 -25.70048614 26.44087238 -24.0625 27.1875 C-23.14597656 27.59355469 -22.22945312 27.99960937 -21.28515625 28.41796875 C-19 30 -19 30 -18.18359375 32.67578125 C-18.12300781 33.44277344 -18.06242187 34.20976563 -18 35 C-13.86048313 32.09115031 -11.68359465 29.79824475 -10 25 C-9.83948949 22.8773869 -9.71842387 20.7516222 -9.625 18.625 C-9.20062644 11.02957938 -6.74205044 6.96437886 -1.6875 1.5 C-1.130625 1.005 -0.57375 0.51 0 0 Z " fill="#CBCACA" transform="translate(72,34)"/>
<path d="M0 0 C12.85562849 7.21040722 22.07740317 17.04979827 26.39257812 31.38598633 C26.93556162 33.98491842 26.96787562 36.36832593 26.953125 39.0234375 C26.94829102 40.56064453 26.94829102 40.56064453 26.94335938 42.12890625 C26.93079102 43.72412109 26.93079102 43.72412109 26.91796875 45.3515625 C26.91345703 46.43050781 26.90894531 47.50945313 26.90429688 48.62109375 C26.89252602 51.28130633 26.87608274 53.94140615 26.85546875 56.6015625 C21.40474651 53.20138557 18.72041919 50.73209107 16.85546875 44.6015625 C16.48402639 41.52505078 16.29279036 38.47311223 16.1328125 35.37890625 C15.79022027 31.94815872 14.65236447 29.52151805 12.85546875 26.6015625 C12.36046875 25.1165625 12.36046875 25.1165625 11.85546875 23.6015625 C10.12404021 22.44234122 10.12404021 22.44234122 7.85546875 21.6015625 C6.49421875 21.0446875 6.49421875 21.0446875 5.10546875 20.4765625 C-0.84700276 18.87397402 -5.10146107 18.67044814 -10.45703125 21.7265625 C-14.01882499 24.22680202 -15.76635366 26.38596047 -17.14453125 30.6015625 C-17.63547163 33.59629884 -17.94941285 36.57386315 -18.14453125 39.6015625 C-19.46453125 39.2715625 -20.78453125 38.9415625 -22.14453125 38.6015625 C-22.2425 37.94929688 -22.34046875 37.29703125 -22.44140625 36.625 C-23.38411507 31.11502948 -24.35608223 26.91618499 -28.14453125 22.6015625 C-32.62401259 19.54737068 -36.82714 18.85960093 -42.14453125 19.6015625 C-48.73301107 21.61160719 -51.70051434 24.65683345 -55.2578125 30.3984375 C-56.41904589 33.2836165 -56.42474166 35.81152641 -56.51953125 38.9140625 C-56.99145435 46.17191435 -58.33367698 50.05218304 -63.83203125 55.0390625 C-66.14453125 56.6015625 -66.14453125 56.6015625 -67.14453125 56.6015625 C-67.76335379 39.81957124 -67.36919945 26.07116434 -56.14453125 12.6015625 C-55.57089844 11.89257812 -54.99726562 11.18359375 -54.40625 10.453125 C-41.25134958 -4.25106776 -17.73074152 -8.21165002 0 0 Z " fill="#0F0E12" transform="translate(120.14453125,13.3984375)"/>
<path d="M0 0 C0.20753906 0.81082031 0.41507813 1.62164062 0.62890625 2.45703125 C3.91305777 14.26073901 8.94088383 23.71019517 19 31 C20.134375 31.598125 21.26875 32.19625 22.4375 32.8125 C25 35 25 35 25.4140625 37.1484375 C25.51503626 38.87562016 25.60309509 40.60359576 25.6796875 42.33203125 C26.39706957 48.30729898 29.48687013 52.76479195 34.0625 56.5 C40.08195351 59.5737635 46.33842997 59.85254723 53 59 C58.37197422 56.92103804 61.95585597 53.86665035 64.5 48.6875 C65.75192834 45.45741649 66.06843122 42.87760662 66.0625 39.4375 C66.28749401 36.11451154 66.74666616 35.23182022 69.25390625 32.9375 C71.20022112 31.58169971 73.16463425 30.25158348 75.14453125 28.9453125 C83.98468993 22.92287882 89.62274679 13.04829583 91.6640625 2.6015625 C91.77492188 1.74304688 91.88578125 0.88453125 92 0 C94.80828805 0.08259671 96.52400492 0.55775518 98.59765625 2.484375 C102.13291883 6.54949266 104.80438804 9.88739081 105.3125 15.375 C104.86003054 20.62364574 103.03562831 24.59741143 99 28 C96.89382374 29.01902598 94.76535798 29.99237563 92.625 30.9375 C84.34849596 34.84881388 78.37544152 40.54552408 72 47 C71.00830246 47.99137577 70.01612626 48.98227301 69.0234375 49.97265625 C67.1761269 51.81965279 65.33649143 53.67340402 63.5 55.53125 C60.69967625 58.29656971 57.78489096 60.87575802 54.79296875 63.4296875 C52.05880367 65.82431574 49.53739854 68.3991665 47 71 C42.9010653 69.38970422 40.23796843 66.42180725 37.25 63.3125 C33.3419496 59.31949198 29.38857684 55.52110348 25.12109375 51.91015625 C22.85836826 49.87245318 20.74986012 47.72781012 18.62841797 45.54516602 C11.92858338 38.66671095 5.41026786 33.58877346 -3.3125 29.4375 C-7.23791233 27.5418428 -9.68885727 25.81840973 -12 22 C-13.41099127 17.76702618 -13.94400487 14.09952951 -12.05859375 9.90625 C-9.20264098 5.10753313 -6.05319984 0 0 0 Z " fill="#F47259" transform="translate(54,104)"/>
<path d="M0 0 C3.1474754 1.6720963 4.36040447 3.96548623 6 7.0625 C5.60546875 9.26171875 5.60546875 9.26171875 5 11.0625 C-11.48794143 15.27653962 -11.48794143 15.27653962 -19.27734375 16.66796875 C-21.02148039 16.90684602 -21.02148039 16.90684602 -22 18.0625 C-22.28549649 21.09873255 -22.44868814 24.13507785 -22.62109375 27.1796875 C-23 30.0625 -23 30.0625 -25 33.0625 C-28 33.4375 -28 33.4375 -31 33.0625 C-33.26954631 29.65818053 -33.36549949 27.89725798 -33.625 23.875 C-33.69976562 22.78832031 -33.77453125 21.70164062 -33.8515625 20.58203125 C-33.90054688 19.75058594 -33.94953125 18.91914062 -34 18.0625 C-36.31 17.4025 -38.62 16.7425 -41 16.0625 C-39.68 15.7325 -38.36 15.4025 -37 15.0625 C-37 13.7425 -37 12.4225 -37 11.0625 C-37.70125 10.815 -38.4025 10.5675 -39.125 10.3125 C-42.38087894 8.89690046 -45.12368559 7.13612202 -48 5.0625 C-48 4.7325 -48 4.4025 -48 4.0625 C-46.74864258 4.04791748 -45.49728516 4.03333496 -44.20800781 4.01831055 C-39.56351197 3.96032073 -34.91950061 3.8830877 -30.27539062 3.80004883 C-28.26570501 3.76680274 -26.25592609 3.73876981 -24.24609375 3.71606445 C-21.35636653 3.68251278 -18.46749407 3.63019663 -15.578125 3.57421875 C-14.68007141 3.56782883 -13.78201782 3.5614389 -12.85675049 3.55485535 C-7.74971819 3.43459234 -4.23445988 0.13232687 0 0 Z " fill="#CBCBCB" transform="translate(128,61.9375)"/>
<path d="M0 0 C3.71078745 0.39194007 6.88609323 1.70683453 10.3125 3.125 C18.7718632 6.21961351 24.47889813 4.0587422 32.484375 0.7421875 C35.18691244 -0.05514497 36.40892404 -0.01542166 39 1 C40 2 40 2 40.1328125 4.90625 C40.13023438 6.0921875 40.12765625 7.278125 40.125 8.5 C40.12886719 10.27890625 40.12886719 10.27890625 40.1328125 12.09375 C40 15 40 15 39 16 C34.11447696 15.73351692 30.41383095 14.85307285 25.9375 12.875 C19.26735253 10.09746139 14.91754103 11.62678006 8.375 14.125 C7.47523437 14.49882812 6.57546875 14.87265625 5.6484375 15.2578125 C2.67665847 16.09061193 0.9361827 15.83739506 -2 15 C-2.05386629 12.87527424 -2.09273071 10.75016348 -2.125 8.625 C-2.14820312 7.44164062 -2.17140625 6.25828125 -2.1953125 5.0390625 C-2 2 -2 2 0 0 Z " fill="#F06F56" transform="translate(81,172)"/>
<path d="M0 0 C2.8125 0.4375 2.8125 0.4375 6 2 C7.44437265 4.89403604 8.26307084 7.85835465 9 11 C11.14470719 7.91731018 11.14470719 7.91731018 13 4 C18.94 4 24.88 4 31 4 C32.32 6.31 33.64 8.62 35 11 C35.14695313 10.37351562 35.29390625 9.74703125 35.4453125 9.1015625 C36.13383034 6.59282507 36.83713809 4.3299834 38 2 C41.1875 0.4375 41.1875 0.4375 44 0 C43.9700601 6.46701762 42.57812596 10.39352894 38.5703125 15.46875 C37 17 37 17 34 18 C32.989375 17.525625 31.97875 17.05125 30.9375 16.5625 C24.8715232 13.78545999 18.54147442 14.20803606 12.375 16.5 C11.26125 16.995 10.1475 17.49 9 18 C4.23163911 13.62900252 0.24048155 9.30662131 -0.25 2.5625 C-0.1675 1.716875 -0.085 0.87125 0 0 Z " fill="#171418" transform="translate(78,101)"/>
<path d="M0 0 C0.09908128 5.1777593 0.17156806 10.35496347 0.21972656 15.53344727 C0.23980786 17.29396175 0.26707879 19.05440982 0.30175781 20.81469727 C0.35043112 23.34928802 0.37300305 25.88299495 0.390625 28.41796875 C0.41127014 29.20149216 0.43191528 29.98501556 0.45318604 30.7922821 C0.45466556 34.41803073 0.12029159 36.78311547 -1.64941406 39.97387695 C-4 42 -4 42 -10 43 C-10 30.46 -10 17.92 -10 5 C-1 0 -1 0 0 0 Z " fill="#CBCBCB" transform="translate(157,59)"/>
<path d="M0 0 C3.20416737 1.37706262 4.30481117 3.82138702 5.88769531 6.8112793 C5.49316406 9.01049805 5.49316406 9.01049805 4.88769531 10.8112793 C2.3904608 11.49013917 -0.1092661 12.15445357 -2.61230469 12.8112793 C-3.30839844 13.00206055 -4.00449219 13.1928418 -4.72167969 13.3894043 C-9.65359658 14.66804942 -14.0181056 14.99485404 -19.11230469 14.8112793 C-19.11230469 13.4912793 -19.11230469 12.1712793 -19.11230469 10.8112793 C-17.61523438 9.33154297 -17.61523438 9.33154297 -15.53417969 7.97924805 C-14.78523438 7.49133789 -14.03628906 7.00342773 -13.26464844 6.50073242 C-12.471875 6.00508789 -11.67910156 5.50944336 -10.86230469 4.9987793 C-10.085 4.48379883 -9.30769531 3.96881836 -8.50683594 3.43823242 C-2.73844645 -0.2446624 -2.73844645 -0.2446624 0 0 Z " fill="#161519" transform="translate(128.1123046875,62.188720703125)"/>
<path d="M0 0 C4.67404894 0.97365194 8.22916992 3.32967295 12.25 5.8125 C13.36761719 6.47088867 13.36761719 6.47088867 14.5078125 7.14257812 C15.21164063 7.57634766 15.91546875 8.01011719 16.640625 8.45703125 C17.28547852 8.84866455 17.93033203 9.24029785 18.59472656 9.64379883 C19.0584668 10.09134521 19.52220703 10.5388916 20 11 C20 12.32 20 13.64 20 15 C11.62504986 14.61387352 3.99730769 13.54824033 -4 11 C-4.65234375 9.234375 -4.65234375 9.234375 -5 7 C-4.00390625 5.078125 -4.00390625 5.078125 -2.5625 3.25 C-2.08941406 2.63640625 -1.61632812 2.0228125 -1.12890625 1.390625 C-0.75636719 0.93171875 -0.38382812 0.4728125 0 0 Z " fill="#161519" transform="translate(71,62)"/>
<path d="M0 0 C0 0.66 0 1.32 0 2 C-6.10158169 4.71181408 -11.31232767 5.8693974 -18 5 C-21.625 3.5 -21.625 3.5 -24 2 C-24 1.34 -24 0.68 -24 0 C-15.76107696 -4.29856854 -8.23892304 -4.29856854 0 0 Z " fill="#EF7159" transform="translate(112,118)"/>
<path d="M0 0 C1.5923093 3.18461859 1.38905037 6.53391489 1 10 C-0.1875 12.0625 -0.1875 12.0625 -2 13 C-4.625 12.8125 -4.625 12.8125 -7 12 C-8.60725635 8.78548731 -8.05748185 5.56387464 -8 2 C-5.09399739 0.74335022 -3.20395416 0 0 0 Z " fill="#222126" transform="translate(123,79)"/>
<path d="M0 0 C2.64 0.66 5.28 1.32 8 2 C8.05399736 3.45792884 8.09279177 4.91642712 8.125 6.375 C8.14820312 7.18710938 8.17140625 7.99921875 8.1953125 8.8359375 C8 11 8 11 6 13 C1.44444444 12.44444444 1.44444444 12.44444444 0 11 C-0.07226502 9.14712498 -0.0838122 7.29166122 -0.0625 5.4375 C-0.05347656 4.42558594 -0.04445313 3.41367188 -0.03515625 2.37109375 C-0.02355469 1.58863281 -0.01195313 0.80617188 0 0 Z " fill="#2C2B30" transform="translate(77,79)"/>
<path d="M0 0 C3.96 0 7.92 0 12 0 C12.33 1.32 12.66 2.64 13 4 C8.38 4 3.76 4 -1 4 C-0.67 2.68 -0.34 1.36 0 0 Z " fill="#CFCFCF" transform="translate(94,127)"/>
<path d="M0 0 C1.60725635 3.21451269 1.05748185 6.43612536 1 10 C0.67 10 0.34 10 0 10 C-0.33 8.02 -0.66 6.04 -1 4 C-1.639375 3.87625 -2.27875 3.7525 -2.9375 3.625 C-3.618125 3.41875 -4.29875 3.2125 -5 3 C-5.33 2.34 -5.66 1.68 -6 1 C-3 0 -3 0 0 0 Z " fill="#7B7981" transform="translate(123,79)"/>
</svg>
