<?xml version="1.0" encoding="UTF-8"?>
<svg version="1.1" xmlns="http://www.w3.org/2000/svg" width="325" height="325">
<path d="M0 0 C107.25 0 214.5 0 325 0 C325 107.25 325 214.5 325 325 C217.75 325 110.5 325 0 325 C0 217.75 0 110.5 0 0 Z " fill="#2D3144" transform="translate(0,0)"/>
<path d="M0 0 C0.33 0 0.66 0 1 0 C1 47.19 1 94.38 1 143 C-44.54 143 -90.08 143 -137 143 C-136.505 142.01 -136.505 142.01 -136 141 C-131.71 141 -127.42 141 -123 141 C-123 140.34 -123 139.68 -123 139 C-122.34773437 138.82984375 -121.69546875 138.6596875 -121.0234375 138.484375 C-116.93850169 137.35167893 -113.55214155 136.36809437 -110 134 C-106.5186148 131.67907653 -103.28700784 130.76004813 -99.26953125 129.7109375 C-96.75635975 129.04023752 -96.75635975 129.04023752 -94 127 C-93.01 127 -92.02 127 -91 127 C-90.7525 126.1028125 -90.7525 126.1028125 -90.5 125.1875 C-88.45735631 122.20864461 -86.24210159 121.76315675 -82.875 120.7109375 C-80.79553879 120.0691916 -80.79553879 120.0691916 -79 118 C-77.47221777 117.40081403 -75.92773044 116.84369726 -74.375 116.3125 C-68.86814018 114.18286301 -65.1524496 111.12464301 -61 107 C-60.071875 106.0925 -59.14375 105.185 -58.1875 104.25 C-56.95454345 102.98181612 -55.73442674 101.69978675 -54.5625 100.375 C-53 99 -53 99 -50.3125 97.75 C-44.54963234 94.70546614 -39.85373653 90.89521888 -37 85 C-36.34 84.67 -35.68 84.34 -35 84 C-34.30518131 82.27949659 -33.61099288 80.55873219 -32.921875 78.8359375 C-31.51485955 76.03383046 -29.22870352 74.17155727 -27 72 C-25.680982 69.33466965 -25.680982 69.33466965 -25 67 C-24.34 67 -23.68 67 -23 67 C-22.896875 66.443125 -22.79375 65.88625 -22.6875 65.3125 C-21.85821592 62.5230899 -20.65700944 60.3860936 -19 58 C-18.34 58 -17.68 58 -17 58 C-16.86464844 57.44570312 -16.72929687 56.89140625 -16.58984375 56.3203125 C-15.95550379 53.82496195 -15.2752018 51.34914614 -14.5625 48.875 C-14.31628906 48.00617188 -14.07007813 47.13734375 -13.81640625 46.2421875 C-13 44 -13 44 -11 42 C-10.49281515 40.38123503 -9.99642278 38.75808708 -9.5625 37.11816406 C-8.9440482 34.78930649 -8.25711886 32.48694365 -7.5625 30.1796875 C-4.91057052 21.21840028 -2.43308439 12.50328845 -1.32421875 3.203125 C-1 1 -1 1 0 0 Z " fill="#FEFEFE" transform="translate(324,182)"/>
<path d="M0 0 C44.88 0 89.76 0 136 0 C136 45.87 136 91.74 136 139 C135.34 139 134.68 139 134 139 C133.67 134.71 133.34 130.42 133 126 C132.34 126 131.68 126 131 126 C127.94229255 116.57624589 125.22012609 107.20296923 123.08984375 97.5234375 C121.91969104 93.74036314 120.24793139 91.23804106 118 88 C117.51917969 86.86175781 117.03835938 85.72351563 116.54296875 84.55078125 C114.85911741 80.6757917 112.80879999 77.56742912 110.3125 74.1875 C109.86390625 73.57422852 109.4153125 72.96095703 108.953125 72.32910156 C108.05040701 71.101688 107.14376089 69.87715222 106.23291016 68.65576172 C105.20923166 67.2809919 104.20205403 65.89395341 103.19921875 64.50390625 C93.51676089 51.66073801 80.05342304 36.22900264 65 30 C62.81675869 28.64621848 60.71034353 27.19991438 58.58984375 25.75 C51.05073097 20.65569755 43.69350978 15.79960485 35 13 C33.642847 12.50816354 32.28869117 12.00798599 30.9375 11.5 C30.27363281 11.25378906 29.60976562 11.00757813 28.92578125 10.75390625 C27.13020142 10.05097135 25.37484103 9.24761159 23.625 8.4375 C19.86265925 6.94553729 16.32760216 6.19062938 12.36328125 5.46875 C9.47603526 4.89607311 6.76924135 3.98901477 4 3 C2.67088318 2.65023242 1.33917261 2.30903983 0 2 C0 1.34 0 0.68 0 0 Z " fill="#FCFCFD" transform="translate(189,0)"/>
<path d="M0 0 C45.54 0 91.08 0 138 0 C137.67 0.66 137.34 1.32 137 2 C133.04 2 129.08 2 125 2 C124.67 3.32 124.34 4.64 124 6 C123.18015625 6.19335938 122.3603125 6.38671875 121.515625 6.5859375 C120.43796875 6.84632813 119.3603125 7.10671875 118.25 7.375 C117.18265625 7.63023437 116.1153125 7.88546875 115.015625 8.1484375 C112.4257421 8.87977749 110.36289902 9.75690964 108 11 C107.01 11.2475 106.02 11.495 105 11.75 C100.22918288 13.01530367 96.01059348 15.45630955 91.671875 17.7578125 C89 19 89 19 86 19 C85.505 20.485 85.505 20.485 85 22 C83.36328125 23.0625 83.36328125 23.0625 81.3125 24 C80.31669922 24.4640625 80.31669922 24.4640625 79.30078125 24.9375 C78.54152344 25.288125 77.78226562 25.63875 77 26 C61.8423422 33.07766478 47.34107692 46.947884 37 60 C36.48179688 60.65355469 35.96359375 61.30710938 35.4296875 61.98046875 C32.86152653 65.31649695 30.54010465 68.70179194 28.375 72.3125 C26.56456201 75.30467083 24.83978134 76.94360661 22 79 C20.73152315 81.58498512 20.73152315 81.58498512 20 84 C19.34 84 18.68 84 18 84 C17.81824219 84.65226562 17.63648437 85.30453125 17.44921875 85.9765625 C16.02533404 90.92730011 14.50592766 95.46546423 12 100 C11.34 100 10.68 100 10 100 C9.9175 101.27875 9.835 102.5575 9.75 103.875 C9.35860468 107.47024561 8.56423293 110.37506697 7.125 113.6875 C4.4373063 119.896661 3.25937295 126.37875132 2 133 C1.34 133 0.68 133 0 133 C0 89.11 0 45.22 0 0 Z " fill="#FDFEFE" transform="translate(0,0)"/>
<path d="M0 0 C0.66 0 1.32 0 2 0 C2.11275269 1.12027588 2.11275269 1.12027588 2.2277832 2.26318359 C2.57519593 5.63542418 2.94356744 9.00504884 3.3125 12.375 C3.43044922 13.550625 3.54839844 14.72625 3.66992188 15.9375 C3.79560547 17.05898437 3.92128906 18.18046875 4.05078125 19.3359375 C4.21574097 20.89127197 4.21574097 20.89127197 4.3840332 22.47802734 C4.78256398 25.34375567 4.78256398 25.34375567 8 27 C9.02734375 29.72265625 9.02734375 29.72265625 9.9375 33.0625 C11.54611834 38.64027624 13.52389401 43.76292626 16 49 C17.33885261 52.07936101 18 53.63753532 18 57 C18.639375 57.268125 19.27875 57.53625 19.9375 57.8125 C22 59 22 59 23 62 C23.9753197 63.02408568 24.98198643 64.01834406 26 65 C29.08769424 68.55084837 31.60758905 71.94330318 34 76 C34.66 76.825 35.32 77.65 36 78.5 C38 81 38 81 39.25 83.375 C40.88983155 85.83474732 42.2654787 87.18677379 44.5 89.0625 C48.1621395 92.13788787 51.3759688 95.50743243 54.5625 99.0625 C60.22274006 105.32840214 65.19824442 110.33929264 72.90625 113.8671875 C75.33465682 115.18106432 77.26386213 116.78587341 79.375 118.5625 C83.33224248 121.77476937 86.81969308 123.09189425 91.71875 124.32421875 C94.92008144 125.27255837 97.2956248 127.07688875 100 129 C110.50340361 133.95443567 121.47992196 136.90710613 133 138.125 C134.16208984 138.25455078 134.16208984 138.25455078 135.34765625 138.38671875 C137.23123721 138.59600552 139.11554808 138.79870627 141 139 C141 139.66 141 140.32 141 141 C94.47 141 47.94 141 0 141 C0 94.47 0 47.94 0 0 Z " fill="#FCFDFD" transform="translate(0,184)"/>
<path d="M0 0 C1.10601562 -0.00515625 2.21203125 -0.0103125 3.3515625 -0.015625 C6.31042471 0.24432672 7.82519795 0.84816078 10.375 2.25 C11.98375 2.311875 11.98375 2.311875 13.625 2.375 C19.13043506 3.65960151 22.05306377 6.77325976 25.375 11.25 C26.75360368 14.19196867 27.62268824 17.09775155 28.375 20.25 C28.87 21.735 28.87 21.735 29.375 23.25 C29.83295041 29.84235594 29.57557921 35.99572225 27.375 42.25 C26.385 42.58 25.395 42.91 24.375 43.25 C22.69098529 45.209003 22.69098529 45.209003 21.0625 47.5625 C17.04049557 52.89694797 12.7462474 56.15018043 6.375 58.25 C2.859375 58.48046875 2.859375 58.48046875 -0.875 58.4375 C-2.73898438 58.42783203 -2.73898438 58.42783203 -4.640625 58.41796875 C-7.625 58.25 -7.625 58.25 -8.625 57.25 C-10.0171724 56.98035819 -11.41393976 56.7342647 -12.8125 56.5 C-17.74361834 55.43381225 -20.14002689 53.90092421 -23.625 50.25 C-26.625 45.15 -26.625 45.15 -26.625 42.25 C-27.615 41.92 -28.605 41.59 -29.625 41.25 C-31.00116812 37.89657884 -30.75820244 34.32626243 -30.75 30.75 C-30.75257812 29.6259375 -30.75515625 28.501875 -30.7578125 27.34375 C-30.64766367 24.7779301 -30.37770662 22.68733573 -29.625 20.25 C-28.965 20.25 -28.305 20.25 -27.625 20.25 C-27.52445312 19.5075 -27.42390625 18.765 -27.3203125 18 C-25.70580571 11.61453493 -19.69094045 6.96286526 -14.49609375 3.2578125 C-9.7344661 0.69309448 -5.36487404 -0.02512822 0 0 Z " fill="#7D56C1" transform="translate(106.625,171.75)"/>
<path d="M0 0 C0.80695313 -0.02835938 1.61390625 -0.05671875 2.4453125 -0.0859375 C8.4197786 -0.10533512 12.03395137 1.38719807 16.375 5.5 C17.27112804 6.52354725 18.14688373 7.56533634 19 8.625 C21.1421332 11.60481283 21.1421332 11.60481283 24.0625 12.875 C26.92271382 14.88487998 27.45514976 16.69146491 28.0859375 20.07421875 C29.35914686 30.75885402 28.37902814 40.02870759 21.58984375 48.80859375 C19.91719464 50.57357594 18.39219111 52.14245906 16.375 53.5 C15.385 53.5 14.395 53.5 13.375 53.5 C13.375 54.16 13.375 54.82 13.375 55.5 C10.735 55.5 8.095 55.5 5.375 55.5 C5.375 56.16 5.375 56.82 5.375 57.5 C2.81221301 57.55420701 0.25058517 57.59377007 -2.3125 57.625 C-3.03373047 57.64175781 -3.75496094 57.65851563 -4.49804688 57.67578125 C-8.64857192 57.71368559 -11.94925126 57.51006528 -15.625 55.5 C-15.955 54.84 -16.285 54.18 -16.625 53.5 C-17.3675 53.066875 -18.11 52.63375 -18.875 52.1875 C-24.04932944 49.0123433 -28.29535568 44.63770436 -30.18359375 38.76171875 C-31.94603575 29.7311531 -31.38257061 20.46055477 -26.625 12.5 C-19.68521772 2.4427986 -11.90279014 -0.0383961 0 0 Z " fill="#C3E88D" transform="translate(164.625,58.5)"/>
<path d="M0 0 C0.495 0.495 0.495 0.495 1 1 C2.4790916 1.16733157 3.95827556 1.33384686 5.4375 1.5 C12.28737336 2.82863923 16.60631638 6.73750889 21 12 C25.19926311 19.0537471 24.9036703 27.95625879 23.49609375 35.8125 C22.0921329 41.20370966 20.43017038 44.43660208 16 48 C15.29101562 48.59941406 14.58203125 49.19882813 13.8515625 49.81640625 C5.61713193 56.58724202 -1.4601217 56.65436052 -12 56 C-17.34505387 54.9761587 -21.64809248 53.46921002 -25 49 C-26.94212449 46.00996661 -28.73233587 43.13013743 -29.5625 39.625 C-29.706875 39.08875 -29.85125 38.5525 -30 38 C-30.99 37.67 -31.98 37.34 -33 37 C-33.63514769 16.29889015 -33.63514769 16.29889015 -28.16015625 9.82421875 C-20.35153428 1.6375257 -11.2937045 -1.08399396 0 0 Z " fill="#FD5773" transform="translate(234,97)"/>
<path d="M0 0 C2.93521074 2.12744074 5.81880467 4.2929621 8.62890625 6.58203125 C9.16193359 6.99517578 9.69496094 7.40832031 10.24414062 7.83398438 C14.58155602 11.37484298 15.9973757 14.36636285 16.71264648 19.84838867 C17.47292951 28.2783996 17.90243944 36.03742235 12.75390625 43.14453125 C11.36221454 44.72767261 9.92912685 46.27626979 8.44140625 47.76953125 C7.94511719 48.33027344 7.44882813 48.89101562 6.9375 49.46875 C4.13337565 52.53658511 1.35385331 54.4786528 -2.78173828 55.10766602 C-22.68658569 55.9607309 -22.68658569 55.9607309 -29.75 49.703125 C-30.64525391 48.74599609 -30.64525391 48.74599609 -31.55859375 47.76953125 C-32.08324219 47.24488281 -32.60789062 46.72023437 -33.1484375 46.1796875 C-38.45440889 40.38156804 -40.05449974 34.92895793 -39.93359375 27.33203125 C-39.94519531 26.60693359 -39.95679687 25.88183594 -39.96875 25.13476562 C-39.93159464 18.24244554 -37.98315884 12.63169674 -33.05859375 7.64453125 C-24.66217284 -0.18806466 -11.11485566 -5.34531227 0 0 Z " fill="#88DBFC" transform="translate(107.55859375,99.23046875)"/>
<path d="M0 0 C0.80695313 -0.02835938 1.61390625 -0.05671875 2.4453125 -0.0859375 C8.4197786 -0.10533512 12.03395137 1.38719807 16.375 5.5 C17.27112804 6.52354725 18.14688373 7.56533634 19 8.625 C21.1421332 11.60481283 21.1421332 11.60481283 24.0625 12.875 C26.92271382 14.88487998 27.45514976 16.69146491 28.0859375 20.07421875 C29.35914686 30.75885402 28.37902814 40.02870759 21.58984375 48.80859375 C19.91719464 50.57357594 18.39219111 52.14245906 16.375 53.5 C15.385 53.5 14.395 53.5 13.375 53.5 C13.375 54.16 13.375 54.82 13.375 55.5 C10.735 55.5 8.095 55.5 5.375 55.5 C5.375 56.16 5.375 56.82 5.375 57.5 C2.81221301 57.55420701 0.25058517 57.59377007 -2.3125 57.625 C-3.03373047 57.64175781 -3.75496094 57.65851563 -4.49804688 57.67578125 C-8.64857192 57.71368559 -11.94925126 57.51006528 -15.625 55.5 C-15.955 54.84 -16.285 54.18 -16.625 53.5 C-17.429375 53.025625 -18.23375 52.55125 -19.0625 52.0625 C-21.625 50.5 -21.625 50.5 -23.625 47.5 C-21.1035146 48.66376249 -19.02147953 49.93296034 -16.75 51.5625 C-13.36042272 53.66403791 -11.57223002 54.20209585 -7.625 54.5 C-6.820625 54.56316406 -6.01625 54.62632813 -5.1875 54.69140625 C3.39753299 55.06944037 10.90327302 52.69348597 18.375 48.5 C19.55830183 46.63355094 19.55830183 46.63355094 20.375 44.5 C20.9009375 43.571875 20.9009375 43.571875 21.4375 42.625 C23.87588951 37.09798379 23.49884445 31.04237959 23.4375 25.125 C23.43298828 24.29355469 23.42847656 23.46210937 23.42382812 22.60546875 C23.41213164 20.57028103 23.39419935 18.53513077 23.375 16.5 C22.715 16.5 22.055 16.5 21.375 16.5 C20.941875 15.7575 20.50875 15.015 20.0625 14.25 C18.20893179 11.22937032 16.13886905 9.66627574 13.375 7.5 C13.375 6.84 13.375 6.18 13.375 5.5 C12.570625 5.355625 11.76625 5.21125 10.9375 5.0625 C8.375 4.5 8.375 4.5 7.375 3.5 C4.32232038 3.19342115 1.25367621 3.22154341 -1.8125 3.1875 C-2.66392578 3.15849609 -3.51535156 3.12949219 -4.39257812 3.09960938 C-10.04277461 3.04280152 -13.08967884 3.83152157 -17.625 7.5 C-18.511875 7.95375 -19.39875 8.4075 -20.3125 8.875 C-23.28264061 10.96212583 -24.23180502 13.20032768 -25.625 16.5 C-26.285 16.5 -26.945 16.5 -27.625 16.5 C-26.61639605 12.91385261 -24.85592585 10.25240003 -22.5625 7.375 C-22.03527344 6.71242188 -21.50804687 6.04984375 -20.96484375 5.3671875 C-14.92744388 0.54936256 -7.4728376 -0.02410593 0 0 Z " fill="#9BB77A" transform="translate(164.625,58.5)"/>
<path d="M0 0 C5.09737508 0.89624177 7.93306506 3.989964 11 8 C12.3459148 10.93477452 13.21286689 13.87568703 14 17 C14.495 18.485 14.495 18.485 15 20 C15.45795041 26.59235594 15.20057921 32.74572225 13 39 C12.01 39.33 11.02 39.66 10 40 C8.31598529 41.959003 8.31598529 41.959003 6.6875 44.3125 C2.66549557 49.64694797 -1.6287526 52.90018043 -8 55 C-11.515625 55.23046875 -11.515625 55.23046875 -15.25 55.1875 C-17.11398438 55.17783203 -17.11398438 55.17783203 -19.015625 55.16796875 C-22 55 -22 55 -23 54 C-24.3921724 53.73035819 -25.78893976 53.4842647 -27.1875 53.25 C-32.11861834 52.18381225 -34.51502689 50.65092421 -38 47 C-41 41.9 -41 41.9 -41 39 C-41.99 38.67 -42.98 38.34 -44 38 C-45.36548164 34.65338603 -45.16703593 31.06893443 -45.1875 27.5 C-45.20167969 26.3759375 -45.21585937 25.251875 -45.23046875 24.09375 C-45.00970218 21.13023944 -44.5460647 19.4932585 -43 17 C-42.29867087 23.70019789 -41.88955039 30.26257354 -42 37 C-41.34 37 -40.68 37 -40 37 C-39.7215625 38.051875 -39.7215625 38.051875 -39.4375 39.125 C-36.88911026 44.22177948 -32.21138258 47.77907649 -27 50 C-23.26214842 50.46966397 -19.51440784 50.4162455 -15.75 50.4375 C-14.73808594 50.47037109 -13.72617188 50.50324219 -12.68359375 50.53710938 C-5.83411721 50.58597075 -1.25398507 49.51338409 4 45 C11.78923241 36.88345858 11.21744998 26.54460602 11.0703125 15.9296875 C11.04710937 14.96289062 11.02390625 13.99609375 11 13 C10.01 12.67 9.02 12.34 8 12 C6.71875 10.0390625 6.71875 10.0390625 5.5 7.625 C3.95719494 4.58883875 2.53918763 2.28822141 0 0 Z " fill="#6A4EA3" transform="translate(121,175)"/>
<path d="M0 0 C0.68384766 0.00902344 1.36769531 0.01804687 2.07226562 0.02734375 C3.73583287 0.05061042 5.39921631 0.08646833 7.0625 0.125 C7.0625 0.785 7.0625 1.445 7.0625 2.125 C8.279375 2.186875 9.49625 2.24875 10.75 2.3125 C15.26429824 2.86282964 17.13730578 4.61476694 20.0625 8.125 C20.660625 8.723125 21.25875 9.32125 21.875 9.9375 C22.266875 10.329375 22.65875 10.72125 23.0625 11.125 C22.7325 11.785 22.4025 12.445 22.0625 13.125 C21.5778125 12.63128906 21.093125 12.13757813 20.59375 11.62890625 C15.70934275 6.96054009 12.80991644 5.36175145 6.0625 5.125 C5.5675 4.63 5.5675 4.63 5.0625 4.125 C-3.68279618 3.28560773 -11.98340724 4.56172579 -18.9375 10.125 C-23.70261484 14.0673612 -25.58946058 16.90134139 -26.9375 23.125 C-27.15096767 26.1118585 -27.12916775 29.07014388 -27.0625 32.0625 C-27.05347656 32.84173828 -27.04445312 33.62097656 -27.03515625 34.42382812 C-27.01183691 36.32435447 -26.97597586 38.22472008 -26.9375 40.125 C-26.2775 40.455 -25.6175 40.785 -24.9375 41.125 C-20.9375 47.47794118 -20.9375 47.47794118 -20.9375 51.125 C-25.33568183 48.54345849 -27.56949627 47.06935635 -28.9375 42.125 C-29.21977973 38.87059025 -29.21647733 35.63977886 -29.1875 32.375 C-29.19523438 31.5190625 -29.20296875 30.663125 -29.2109375 29.78125 C-29.18290869 20.53174133 -28.28527138 13.59283871 -21.73046875 6.78125 C-15.45977221 0.98871115 -8.34359718 -0.14767429 0 0 Z " fill="#714057" transform="translate(228.9375,93.875)"/>
<path d="M0 0 C1.35568336 0.00333092 1.35568336 0.00333092 2.73875427 0.00672913 C3.75973709 0.00680466 4.78071991 0.00688019 5.8326416 0.00695801 C6.94304306 0.01211929 8.05344452 0.01728058 9.19749451 0.02259827 C10.89336952 0.02472069 10.89336952 0.02472069 12.62350464 0.02688599 C16.25105891 0.03250433 19.8785525 0.04505994 23.50608826 0.05775452 C25.95856133 0.06276715 28.41103536 0.06733047 30.86351013 0.07142639 C36.89022371 0.08247971 42.91690165 0.09923568 48.94358826 0.12025452 C48.94358826 0.78025452 48.94358826 1.44025452 48.94358826 2.12025452 C49.55847107 2.16923889 50.17335388 2.21822327 50.80686951 2.26869202 C51.61511169 2.34345764 52.42335388 2.41822327 53.25608826 2.49525452 C54.45684998 2.59966858 54.45684998 2.59966858 55.68186951 2.70619202 C57.94358826 3.12025452 57.94358826 3.12025452 60.94358826 5.12025452 C62.55511958 5.51357742 64.18327284 5.84190296 65.81858826 6.12025452 C69.40644998 6.78117641 72.61676032 7.56773481 75.94358826 9.12025452 C75.94358826 9.45025452 75.94358826 9.78025452 75.94358826 10.12025452 C70.31858826 10.37025452 70.31858826 10.37025452 66.94358826 8.12025452 C65.27001063 7.70525066 63.57946758 7.35540862 61.88108826 7.05775452 C57.13037641 6.21364859 57.13037641 6.21364859 54.94358826 5.12025452 C35.43611363 2.05191465 15.02568104 1.76218457 -4.50563049 4.68275452 C-8.41781201 5.16478348 -12.11872117 5.18971764 -16.05641174 5.12025452 C-15.72641174 4.13025452 -15.39641174 3.14025452 -15.05641174 2.12025452 C-14.20176331 2.05966858 -13.34711487 1.99908264 -12.46656799 1.93666077 C-10.80947815 1.81097717 -10.80947815 1.81097717 -9.11891174 1.68275452 C-8.01676331 1.60154358 -6.91461487 1.52033264 -5.77906799 1.43666077 C-3.00798704 1.11462697 -2.59439273 0.15171448 0 0 Z " fill="#4A4D5C" transform="translate(140.05641174316406,-0.1202545166015625)"/>
<path d="M0 0 C4.29828042 2.86552028 4.94650068 6.06216986 6 11 C6.86725621 19.61474497 6.41378623 28.68256448 0.875 35.6875 C-0.07375 36.450625 -1.0225 37.21375 -2 38 C-2.70898438 38.59941406 -3.41796875 39.19882813 -4.1484375 39.81640625 C-12.38851043 46.5918815 -19.45551002 46.64295671 -30 46 C-34.95829115 45.1130944 -38.05809815 43.98784828 -41.5625 40.3125 C-42.036875 39.549375 -42.51125 38.78625 -43 38 C-40.75815921 39.12092039 -38.60199439 40.2437019 -36.4609375 41.5546875 C-31.93165291 43.44614946 -28.10114274 43.40479724 -23.25 43.3125 C-22.38761719 43.31572266 -21.52523437 43.31894531 -20.63671875 43.32226562 C-15.8055337 43.54365776 -15.8055337 43.54365776 -12 41 C-11.236875 40.731875 -10.47375 40.46375 -9.6875 40.1875 C-4.94761618 38.09313273 -2.20863689 34.87501937 -0.1875 30.1875 C0.4003125 28.6096875 0.4003125 28.6096875 1 27 C1.66 27 2.32 27 3 27 C3.59824627 13.18196147 3.59824627 13.18196147 0 0 Z " fill="#AB4A63" transform="translate(252,107)"/>
<path d="M0 0 C-4.625 3 -4.625 3 -8 3 C-8.33 3.99 -8.66 4.98 -9 6 C-10.63671875 7.0625 -10.63671875 7.0625 -12.6875 8 C-13.35136719 8.309375 -14.01523438 8.61875 -14.69921875 8.9375 C-15.83810547 9.4634375 -15.83810547 9.4634375 -17 10 C-32.1576578 17.07766478 -46.65892308 30.947884 -57 44 C-57.51820312 44.65355469 -58.03640625 45.30710938 -58.5703125 45.98046875 C-62.02518628 50.46833243 -65.08343528 55.14766224 -68 60 C-68.33 59.34 -68.66 58.68 -69 58 C-66.46605815 50.75552523 -60.87324277 45.28951858 -55.6953125 39.84765625 C-53.54409158 37.57484459 -51.50594901 35.27341729 -49.5 32.875 C-41.12581493 23.29319013 -30.18228286 13.5223889 -18.65234375 7.84375 C-16.80637723 7.10708699 -16.80637723 7.10708699 -16 5 C-14.66666667 4.66666667 -13.33333333 4.33333333 -12 4 C-11.67 3.34 -11.34 2.68 -11 2 C-9.00390625 1.11328125 -9.00390625 1.11328125 -6.5625 0.3125 C-5.75941406 0.04050781 -4.95632812 -0.23148438 -4.12890625 -0.51171875 C-2 -1 -2 -1 0 0 Z " fill="#B0B1B7" transform="translate(94,16)"/>
<path d="M0 0 C0.80695313 -0.02835938 1.61390625 -0.05671875 2.4453125 -0.0859375 C8.46681237 -0.10548782 11.99442822 1.38127878 16.375 5.5 C18.58984375 7.88671875 18.58984375 7.88671875 20.3125 10.1875 C21.19228516 11.33798828 21.19228516 11.33798828 22.08984375 12.51171875 C23.375 14.5 23.375 14.5 23.375 16.5 C22.715 16.5 22.055 16.5 21.375 16.5 C20.941875 15.7575 20.50875 15.015 20.0625 14.25 C18.20893179 11.22937032 16.13886905 9.66627574 13.375 7.5 C13.375 6.84 13.375 6.18 13.375 5.5 C12.570625 5.355625 11.76625 5.21125 10.9375 5.0625 C8.375 4.5 8.375 4.5 7.375 3.5 C4.32232038 3.19342115 1.25367621 3.22154341 -1.8125 3.1875 C-2.66392578 3.15849609 -3.51535156 3.12949219 -4.39257812 3.09960938 C-10.04277461 3.04280152 -13.08967884 3.83152157 -17.625 7.5 C-18.511875 7.95375 -19.39875 8.4075 -20.3125 8.875 C-23.28264061 10.96212583 -24.23180502 13.20032768 -25.625 16.5 C-26.285 16.5 -26.945 16.5 -27.625 16.5 C-26.61639605 12.91385261 -24.85592585 10.25240003 -22.5625 7.375 C-22.03527344 6.71242188 -21.50804687 6.04984375 -20.96484375 5.3671875 C-14.92744388 0.54936256 -7.4728376 -0.02410593 0 0 Z " fill="#A0BE7D" transform="translate(164.625,58.5)"/>
<path d="M0 0 C2.1875 0.125 2.1875 0.125 5 1 C6.73223664 2.94348501 8.39881603 4.94720004 10 7 C11.051875 7.7734375 11.051875 7.7734375 12.125 8.5625 C14.62333624 10.47789111 15.62360515 12.15136108 17 15 C17.26409188 17.72043028 17.37576681 20.16718057 17.3125 22.875 C17.31733398 23.89787109 17.31733398 23.89787109 17.32226562 24.94140625 C17.25830856 31.04639885 16.00930479 36.62624145 13 42 C12.34 42 11.68 42 11 42 C10.79375 42.7425 10.5875 43.485 10.375 44.25 C8.60384411 47.79231177 6.36572049 49.02446841 3 51 C4.24959879 47.25120362 6.20967538 45.79032462 9 43 C13.87249064 37.70535048 14.72123033 33.51963157 14.4375 26.4375 C14.43169922 25.61314453 14.42589844 24.78878906 14.41992188 23.93945312 C14.29800364 17.83866473 14.02322608 12.95855675 9.43359375 8.515625 C8.44488281 7.76796875 7.45617187 7.0203125 6.4375 6.25 C1.07473684 2.14947368 1.07473684 2.14947368 0 0 Z " fill="#6192AE" transform="translate(109,100)"/>
<path d="M0 0 C1.5329083 3.98556158 0.50278067 7.60568852 -0.375 11.625 C-0.51421875 12.305625 -0.6534375 12.98625 -0.796875 13.6875 C-1.84470663 18.68941327 -1.84470663 18.68941327 -3 21 C-3.15353304 22.58082164 -3.27413295 24.16494628 -3.375 25.75 C-3.75853162 30.08830854 -4.71553534 33.22566709 -7 37 C-7.33 37 -7.66 37 -8 37 C-8 32.71 -8 28.42 -8 24 C-7.34 24 -6.68 24 -6 24 C-6.07541016 22.50919922 -6.07541016 22.50919922 -6.15234375 20.98828125 C-5.98490251 16.6047555 -5.03678682 13.26920317 -3.5625 9.1875 C-3.33240234 8.52041016 -3.10230469 7.85332031 -2.86523438 7.16601562 C-2.01223938 4.71581841 -1.16143723 2.32287446 0 0 Z " fill="#606370" transform="translate(8,109)"/>
<path d="M0 0 C1.98 0.99 1.98 0.99 4 2 C4 2.66 4 3.32 4 4 C4.53625 4.2475 5.0725 4.495 5.625 4.75 C8 6 8 6 10.40625 8.0625 C15.06607726 11.19566008 20.48220262 10.42267578 25.875 10.25 C26.94492188 10.23195312 28.01484375 10.21390625 29.1171875 10.1953125 C31.74572178 10.14837439 34.37238913 10.08272933 37 10 C35 13 35 13 32 14 C13.2807004 14.86007593 13.2807004 14.86007593 6 9 C6 8.34 6 7.68 6 7 C5.01 6.67 4.02 6.34 3 6 C2.67 5.01 2.34 4.02 2 3 C1.34 2.67 0.68 2.34 0 2 C0 1.34 0 0.68 0 0 Z " fill="#52758E" transform="translate(72,143)"/>
<path d="M0 0 C0.68384766 0.00902344 1.36769531 0.01804688 2.07226562 0.02734375 C3.73583287 0.05061042 5.39921631 0.08646833 7.0625 0.125 C7.0625 0.785 7.0625 1.445 7.0625 2.125 C8.7125 2.125 10.3625 2.125 12.0625 2.125 C12.0625 3.115 12.0625 4.105 12.0625 5.125 C11.20269531 4.80273438 10.34289062 4.48046875 9.45703125 4.1484375 C1.79667411 1.83887068 -6.61165188 2.02586442 -13.79296875 5.703125 C-17.88211389 8.41432505 -21.43048636 11.7091853 -24.9375 15.125 C-25.2675 13.805 -25.5975 12.485 -25.9375 11.125 C-24.66863036 9.99778564 -23.39732438 8.87331342 -22.125 7.75 C-21.41730469 7.12351563 -20.70960937 6.49703125 -19.98046875 5.8515625 C-13.86620619 0.68425074 -7.83856391 -0.13873564 0 0 Z " fill="#4A4071" transform="translate(106.9375,169.875)"/>
<path d="M0 0 C0.33 0 0.66 0 1 0 C1.29164235 6.48094119 1.45050353 12.02188225 -1.2109375 18.00390625 C-2.13370906 20.33824422 -2.56172504 22.59256059 -3 25.0625 C-3.79332909 29.41236375 -5.09516139 33.01715564 -7 37 C-7.66 37 -8.32 37 -9 37 C-9 39.31 -9 41.62 -9 44 C-9.66 44 -10.32 44 -11 44 C-11.33 45.32 -11.66 46.64 -12 48 C-12.66 48 -13.32 48 -14 48 C-13.731875 47.34 -13.46375 46.68 -13.1875 46 C-10.4206852 39.01015209 -8.00778608 32.03838539 -5.9375 24.8125 C-5.67364502 23.89500977 -5.40979004 22.97751953 -5.13793945 22.03222656 C-3.38396703 15.77314654 -2.09447821 9.66336564 -1.32421875 3.203125 C-1 1 -1 1 0 0 Z " fill="#CBCDD0" transform="translate(324,182)"/>
<path d="M0 0 C5.09737508 0.89624177 7.93306506 3.989964 11 8 C12.3459148 10.93477452 13.21286689 13.87568703 14 17 C14.33 17.99 14.66 18.98 15 20 C15.46398843 26.67927533 14.93139323 32.60225992 13 39 C12.34 39 11.68 39 11 39 C10.875 33.25 10.875 33.25 12 31 C12.43426831 24.95856142 11.76025104 18.98697691 11 13 C10.01 12.67 9.02 12.34 8 12 C6.71875 10.0390625 6.71875 10.0390625 5.5 7.625 C3.95719494 4.58883875 2.53918763 2.28822141 0 0 Z " fill="#51447C" transform="translate(121,175)"/>
<path d="M0 0 C1.4540625 0.0309375 1.4540625 0.0309375 2.9375 0.0625 C2.9375 0.3925 2.9375 0.7225 2.9375 1.0625 C2.091875 1.31 1.24625 1.5575 0.375 1.8125 C-3.16185263 2.96989744 -3.16185263 2.96989744 -6.4375 5.125 C-10.26274511 7.42699314 -13.64261403 7.75233256 -18.0625 8.0625 C-18.0625 8.7225 -18.0625 9.3825 -18.0625 10.0625 C-18.98933594 10.12308594 -19.91617188 10.18367188 -20.87109375 10.24609375 C-22.06863281 10.32988281 -23.26617187 10.41367187 -24.5 10.5 C-25.69496094 10.58121094 -26.88992187 10.66242188 -28.12109375 10.74609375 C-30.94820244 10.73906114 -30.94820244 10.73906114 -32.0625 12.0625 C-34.39547433 12.10342937 -36.72955225 12.10491723 -39.0625 12.0625 C-38.0625 10.0625 -38.0625 10.0625 -36.0625 9 C-32.83628292 7.99180716 -29.86550968 7.65925509 -26.515625 7.33203125 C-17.52300683 6.34398881 -8.18278856 0.16699568 0 0 Z " fill="#747782" transform="translate(219.0625,312.9375)"/>
<path d="M0 0 C0.66 0.33 1.32 0.66 2 1 C1.15695313 1.79664062 0.31390625 2.59328125 -0.5546875 3.4140625 C-1.66198782 4.48382721 -2.76872935 5.55417052 -3.875 6.625 C-4.43058594 7.14707031 -4.98617187 7.66914062 -5.55859375 8.20703125 C-9.00186185 11.56732904 -10.8575416 14.18432091 -12 19 C-12.66 19 -13.32 19 -14 19 C-13.85966889 20.97956441 -13.7125877 22.95865141 -13.5625 24.9375 C-13.48128906 26.03964844 -13.40007812 27.14179688 -13.31640625 28.27734375 C-13.29581916 30.91109903 -13.29581916 30.91109903 -12 32 C-11.95919217 33.99958364 -11.95745644 36.00045254 -12 38 C-15.08378506 34.90805678 -15.38722095 32.23234368 -15.41015625 27.94726562 C-15.39855469 27.20154297 -15.38695313 26.45582031 -15.375 25.6875 C-15.38660156 24.95337891 -15.39820312 24.21925781 -15.41015625 23.46289062 C-15.3775084 17.33053593 -14.02596734 12.51685882 -10.09765625 7.63671875 C-9.42605469 6.99347656 -8.75445312 6.35023437 -8.0625 5.6875 C-7.39347656 5.03136719 -6.72445312 4.37523438 -6.03515625 3.69921875 C-4.06897678 2.05759098 -2.39413806 0.9046743 0 0 Z " fill="#7DC5E4" transform="translate(83,101)"/>
<path d="M0 0 C4.58063273 1.24926347 6.7009571 2.7009571 10 6 C12.06286818 7.11856899 14.15252176 8.10929548 16.29296875 9.0703125 C18 10 18 10 19 12 C21.38681915 13.46881179 23.51421848 14.12855462 26.25 14.8125 C32.19308562 16.69447711 37.13077799 20.14519925 42 24 C39.20355578 23.60050797 37.22122617 23.13905645 34.8125 21.625 C32.15625677 20.09028169 30.25187691 19.52438034 27.3125 18.8125 C21.9549009 17.31587499 18.55755484 14.51224851 14.390625 10.921875 C11.64281484 8.71285114 8.88515867 7.38135705 5.6953125 5.94140625 C3.10367956 4.50227367 1.61998615 2.42997923 0 0 Z " fill="#92949C" transform="translate(62,290)"/>
<path d="M0 0 C3.16728651 3.16728651 3.37339535 3.42382035 3.625 7.53515625 C3.69203125 8.42783203 3.7590625 9.32050781 3.828125 10.24023438 C3.88484375 11.17158203 3.9415625 12.10292969 4 13.0625 C4.41371133 19.65837491 5.22107184 25.53486757 7.37890625 31.80639648 C8 34 8 34 8 38 C6.05175781 37.35400391 6.05175781 37.35400391 4 36 C3.36230469 33.47802734 3.36230469 33.47802734 3.171875 30.3359375 C3.05585937 28.65371094 3.05585937 28.65371094 2.9375 26.9375 C2.875625 25.761875 2.81375 24.58625 2.75 23.375 C2.67265625 22.19164062 2.5953125 21.00828125 2.515625 19.7890625 C2.32665364 16.86000643 2.15556062 13.93098972 2 11 C1.34 11 0.68 11 0 11 C0 7.37 0 3.74 0 0 Z " fill="#6F727D" transform="translate(0,173)"/>
<path d="M0 0 C3.24174651 2.16116434 4.04784342 3.72037695 6 7 C8.44293953 9.75815754 10.60957914 11.54696249 14 13 C14 13.66 14 14.32 14 15 C18.42682491 16.0390378 22.78934632 16.31592951 27.3125 16.5625 C28.05306641 16.60568359 28.79363281 16.64886719 29.55664062 16.69335938 C31.37091464 16.79870432 33.1854355 16.89978316 35 17 C35 16.34 35 15.68 35 15 C36.32 15 37.64 15 39 15 C38.34 16.32 37.68 17.64 37 19 C34.04142591 19.05379226 31.08382279 19.09357093 28.125 19.125 C26.86236328 19.15013672 26.86236328 19.15013672 25.57421875 19.17578125 C24.36572266 19.18544922 24.36572266 19.18544922 23.1328125 19.1953125 C22.38918457 19.20578613 21.64555664 19.21625977 20.87939453 19.22705078 C19 19 19 19 17 17 C15.01643517 16.28591666 13.01684563 15.61382258 11 15 C11 14.34 11 13.68 11 13 C10.443125 12.773125 9.88625 12.54625 9.3125 12.3125 C5.0769983 9.9085666 2.48489655 7.22378653 0.6875 2.6875 C0.460625 1.800625 0.23375 0.91375 0 0 Z " fill="#525F59" transform="translate(135,99)"/>
<path d="M0 0 C4.39623155 2.3571284 6.75842236 5.59643944 8.8359375 9.984375 C8.25199219 9.36949219 8.25199219 9.36949219 7.65625 8.7421875 C3.31347917 4.55951882 -0.17134287 3.14498365 -6.125 2.30859375 C-8.1640625 1.984375 -8.1640625 1.984375 -9.1640625 0.984375 C-15.19764181 0.52646943 -21.18543025 1.2251836 -27.1640625 1.984375 C-26.1640625 -0.015625 -26.1640625 -0.015625 -24.0234375 -1.12109375 C-16.48906361 -3.47815881 -7.3308084 -2.88872004 0 0 Z " fill="#CA4F69" transform="translate(243.1640625,97.015625)"/>
<path d="M0 0 C0.33 0 0.66 0 1 0 C1.70132913 6.70019789 2.11044961 13.26257354 2 20 C2.66 20 3.32 20 4 20 C4.36351563 20.79664063 4.36351563 20.79664063 4.734375 21.609375 C6.67887453 25.70778171 8.39810476 29.09524577 12 32 C12.99 32.33 13.98 32.66 15 33 C15.33 33.99 15.66 34.98 16 36 C10.62317402 34.15651681 7.07324401 31.85042071 4.1875 26.875 C3 24 3 24 3 22 C2.01 21.67 1.02 21.34 0 21 C-1.37616812 17.64657884 -1.13320244 14.07626243 -1.125 10.5 C-1.12757812 9.3759375 -1.13015625 8.251875 -1.1328125 7.09375 C-1.02266367 4.5279301 -0.75270662 2.43733573 0 0 Z " fill="#443E68" transform="translate(77,192)"/>
<path d="M0 0 C0.75 1.6875 0.75 1.6875 1 4 C-0.31665664 5.67987227 -1.65263027 7.34466005 -3 9 C-3.88407027 11.31887284 -4.42947818 13.57528226 -5 16 C-5.66 16 -6.32 16 -7 16 C-7.12375 16.556875 -7.2475 17.11375 -7.375 17.6875 C-8.06543354 20.2421041 -8.89481684 22.59460135 -10 25 C-10.66 25.33 -11.32 25.66 -12 26 C-12.73075648 28.3140622 -13.40138258 30.64828869 -14 33 C-15.10348268 29.68955197 -14.99444068 27.34493684 -14 24 C-13.34 23.67 -12.68 23.34 -12 23 C-10.92970197 20.0274496 -10.07484357 17.01448138 -9.1953125 13.98046875 C-7.91477732 10.7875003 -6.50362477 9.29667192 -4 7 C-3.29289322 5.35008418 -2.62056011 3.68437744 -2 2 C-1.34 1.34 -0.68 0.68 0 0 Z " fill="#81838D" transform="translate(24,76)"/>
<path d="M0 0 C0.66 0.33 1.32 0.66 2 1 C0.63875 2.423125 0.63875 2.423125 -0.75 3.875 C-8.96912452 13.71068219 -8.47823577 23.80498787 -8 36 C-10.67733998 33.32968716 -11.00280229 31.96278559 -11.29296875 28.109375 C-11.27314945 26.65595991 -11.23754845 25.20268833 -11.1875 23.75 C-11.17396484 23.00492188 -11.16042969 22.25984375 -11.14648438 21.4921875 C-11.11127204 19.66114584 -11.05746851 17.83047831 -11 16 C-10.34 16 -9.68 16 -9 16 C-9.061875 15.113125 -9.12375 14.22625 -9.1875 13.3125 C-8.93969082 8.93453776 -7.68472376 6.56040572 -4.46484375 3.578125 C-3.0056228 2.35003361 -1.50547788 1.17092724 0 0 Z " fill="#5D6B5E" transform="translate(143,63)"/>
<path d="M0 0 C5.87810176 0.86442673 10.35832105 3.40644211 15 7 C15.7425 7.433125 16.485 7.86625 17.25 8.3125 C22.55771228 11.56950526 27.41259452 14.84171199 31 20 C28.88608838 19.05238445 27.2618526 18.28679094 25.6875 16.5625 C23.67368382 14.69785539 21.53946484 13.95468481 19.01953125 12.94140625 C15.88435593 11.47994154 13.13168101 9.51716767 10.2890625 7.55859375 C7.40030168 5.59167299 4.42664456 3.78330052 1.43359375 1.98046875 C0.96050781 1.65691406 0.48742187 1.33335938 0 1 C0 0.67 0 0.34 0 0 Z " fill="#A8ABB2" transform="translate(237,18)"/>
<path d="M0 0 C5.59523355 2.50656959 9.34501691 7.55728466 12 13 C13.54233097 20.43123102 13.23862956 27.56822263 12 35 C10.515 35.495 10.515 35.495 9 36 C9.165 35.2575 9.33 34.515 9.5 33.75 C11.06945538 21.97908466 9.9048579 13.03914455 2.75 3.375 C1.84455317 2.24095026 0.93207073 1.11227107 0 0 Z " fill="#4F3B50" transform="translate(247,100)"/>
<path d="M0 0 C5.70042553 5.38373523 9.05815255 10.76795836 12 18 C12.36609375 18.76054688 12.7321875 19.52109375 13.109375 20.3046875 C13.48578125 21.09101562 13.8621875 21.87734375 14.25 22.6875 C14.78367187 23.77611328 14.78367187 23.77611328 15.328125 24.88671875 C16 27 16 27 15 31 C14.01 28.03 13.02 25.06 12 22 C11.34 22 10.68 22 10 22 C9.66226562 21.18015625 9.32453125 20.3603125 8.9765625 19.515625 C8.53054688 18.43796875 8.08453125 17.3603125 7.625 16.25 C7.18414062 15.18265625 6.74328125 14.1153125 6.2890625 13.015625 C4.18095869 7.69603336 4.18095869 7.69603336 0 4 C0 2.68 0 1.36 0 0 Z " fill="#8D8F98" transform="translate(298,73)"/>
<path d="M0 0 C1.89666526 0.08772455 3.79238993 0.19591301 5.6875 0.3125 C7.27111328 0.39951172 7.27111328 0.39951172 8.88671875 0.48828125 C12.2580175 1.0424094 14.1936366 2.10315126 17 4 C19.83118697 5.26658365 22.56975123 6.15993017 25.5625 7 C28.29362034 7.79450773 30.53706635 8.62075715 33 10 C33 10.33 33 10.66 33 11 C30.125 11.125 30.125 11.125 27 11 C26.34 10.34 25.68 9.68 25 9 C23.39448394 8.44058674 21.76516347 7.94775976 20.125 7.5 C17.60784067 6.80872042 15.32516433 6.16799096 13.00390625 4.96875 C9.86620322 3.45188771 6.56113942 3.12276371 3.14453125 2.5625 C2.43683594 2.376875 1.72914063 2.19125 1 2 C0.67 1.34 0.34 0.68 0 0 Z " fill="#B3B5BB" transform="translate(198,3)"/>
<path d="M0 0 C0.33 0 0.66 0 1 0 C0.67 10.56 0.34 21.12 0 32 C-0.66 31.67 -1.32 31.34 -2 31 C-2.05804281 26.58338849 -2.09361104 22.16687504 -2.125 17.75 C-2.14175781 16.49574219 -2.15851563 15.24148437 -2.17578125 13.94921875 C-2.18222656 12.74394531 -2.18867187 11.53867188 -2.1953125 10.296875 C-2.20578613 9.18666992 -2.21625977 8.07646484 -2.22705078 6.93261719 C-2.00468334 4.06049058 -1.49281575 2.42776265 0 0 Z " fill="#3C404F" transform="translate(2,142)"/>
<path d="M0 0 C0.66 0.33 1.32 0.66 2 1 C-3.14800089 5.73059541 -8.80860453 8.80444105 -15 12 C-16.09183594 12.5775 -17.18367187 13.155 -18.30859375 13.75 C-19.38238281 14.306875 -20.45617187 14.86375 -21.5625 15.4375 C-23.04943359 16.20900391 -23.04943359 16.20900391 -24.56640625 16.99609375 C-25.36949219 17.32738281 -26.17257813 17.65867187 -27 18 C-27.66 17.67 -28.32 17.34 -29 17 C-28.071875 16.87625 -28.071875 16.87625 -27.125 16.75 C-26.42375 16.5025 -25.7225 16.255 -25 16 C-24.7525 15.38125 -24.505 14.7625 -24.25 14.125 C-22.46067433 11.08314637 -20.14754408 10.73360752 -16.875 9.7109375 C-14.79553879 9.0691916 -14.79553879 9.0691916 -13 7 C-10.49944496 5.94058817 -7.96200311 5.02594222 -5.41015625 4.09765625 C-3.02364752 3.01076978 -1.69787979 1.96685084 0 0 Z " fill="#9DA0A7" transform="translate(258,293)"/>
<path d="M0 0 C0.625 1.8515625 0.625 1.8515625 1 4 C-1 6.375 -1 6.375 -4 9 C-4.55558594 9.52207031 -5.11117187 10.04414063 -5.68359375 10.58203125 C-11.64997429 16.04346199 -16.9754956 17.34061069 -25.0625 17.25 C-25.75666016 17.25773437 -26.45082031 17.26546875 -27.16601562 17.2734375 C-31.21850071 17.25804344 -34.35489452 16.79057813 -38 15 C-38 14.67 -38 14.34 -38 14 C-36.33388095 13.957279 -34.66617115 13.95936168 -33 14 C-32.67 14.33 -32.34 14.66 -32 15 C-23.85122122 15.67445794 -16.8282555 15.81308742 -10 11 C-8.6696875 10.1028125 -8.6696875 10.1028125 -7.3125 9.1875 C-4.35330047 6.3882572 -2.27399838 3.37851188 0 0 Z " fill="#3D3B5D" transform="translate(131,214)"/>
<path d="M0 0 C2.64 0 5.28 0 8 0 C8 0.66 8 1.32 8 2 C8.61488281 2.04898437 9.22976562 2.09796875 9.86328125 2.1484375 C10.67152344 2.22320312 11.47976562 2.29796875 12.3125 2.375 C13.51326172 2.47941406 13.51326172 2.47941406 14.73828125 2.5859375 C17 3 17 3 20 5 C21.61153132 5.3933229 23.23968458 5.72164844 24.875 6 C28.46286173 6.6609219 31.67317206 7.44748029 35 9 C35 9.33 35 9.66 35 10 C29.375 10.25 29.375 10.25 26 8 C24.38846868 7.6066771 22.76031542 7.27835156 21.125 7 C18.42903156 6.5383051 16.08387598 6.03387043 13.54296875 5.0078125 C10.76018981 3.90496002 8.13595311 3.37232944 5.1875 2.875 C4.21167969 2.70742188 3.23585937 2.53984375 2.23046875 2.3671875 C1.49441406 2.24601563 0.75835937 2.12484375 0 2 C0 1.34 0 0.68 0 0 Z " fill="#656874" transform="translate(181,0)"/>
<path d="M0 0 C3.93303753 -0.39330375 6.37140307 0.03532246 9.75 1.9375 C13.69915042 4.08541578 17.07864372 4.50305634 21.5234375 4.78515625 C25.15548316 5.10023908 28.49260377 6.02572327 32 7 C32 7.33 32 7.66 32 8 C24.0301834 8.36973376 17.48565838 7.76316249 10 5 C9.23171875 4.73703125 8.4634375 4.4740625 7.671875 4.203125 C2.31458333 2.31458333 2.31458333 2.31458333 0 0 Z " fill="#8B8E97" transform="translate(104,314)"/>
<path d="M0 0 C1.921875 0.7890625 1.921875 0.7890625 4 2 C6.98598332 10.06215496 7.53578848 20.04447592 4 28 C3.67 28 3.34 28 3 28 C3.03480469 26.98421875 3.06960937 25.9684375 3.10546875 24.921875 C3.3108502 16.14181781 2.69112948 8.45783552 0 0 Z " fill="#5F6F5F" transform="translate(187,71)"/>
<path d="M0 0 C1.125 3.75 1.125 3.75 0 6 C-0.07194869 8.88370333 -0.09291708 11.74239664 -0.0625 14.625 C-0.05798828 15.42679688 -0.05347656 16.22859375 -0.04882812 17.0546875 C-0.03703168 19.03649006 -0.01909605 21.01825433 0 23 C0.66 23.33 1.32 23.66 2 24 C6 30.35294118 6 30.35294118 6 34 C1.60042218 31.41763911 -0.63808677 29.94828474 -2 25 C-2.2810143 21.66230641 -2.27911041 18.3476967 -2.25 15 C-2.25773438 14.11054687 -2.26546875 13.22109375 -2.2734375 12.3046875 C-2.25991284 7.77392591 -2.15636738 4.10736644 0 0 Z " fill="#8D455C" transform="translate(202,111)"/>
<path d="M0 0 C0 3.23861295 -0.6250851 5.09740189 -2 8 C-2.99 8.495 -2.99 8.495 -4 9 C-4.37125 9.70125 -4.7425 10.4025 -5.125 11.125 C-8.22168571 15.87325142 -12.56685257 20.18895086 -18 22 C-18 20 -18 20 -15.625 17.375 C-13 15 -13 15 -11 15 C-10.59587891 14.11828125 -10.59587891 14.11828125 -10.18359375 13.21875 C-9.00340327 11.00637973 -7.72814857 9.36484828 -6.0625 7.5 C-3.92593179 5.07089433 -1.89223329 2.62810179 0 0 Z " fill="#7E818B" transform="translate(291,259)"/>
<path d="M0 0 C1.16711563 3.64610542 1.03231032 7.00772078 0.9375 10.8125 C0.89936349 16.06988978 1.16323155 20.1019508 3 25 C3.37125 26.134375 3.7425 27.26875 4.125 28.4375 C4.41375 29.283125 4.7025 30.12875 5 31 C1.48584209 28.65722806 -0.24166639 26.29047703 -1.57421875 22.265625 C-2.15057181 19.19879223 -2.17072921 16.24436634 -2.1875 13.125 C-2.20167969 11.93132812 -2.21585938 10.73765625 -2.23046875 9.5078125 C-2.00004992 6.00075978 -1.26279461 3.26429911 0 0 Z " fill="#9AB67A" transform="translate(136,75)"/>
<path d="M0 0 C16.70842825 -0.3690205 16.70842825 -0.3690205 25 2 C25 2.33 25 2.66 25 3 C18.4 3 11.8 3 5 3 C5 2.34 5 1.68 5 1 C3.35 1 1.7 1 0 1 C0 0.67 0 0.34 0 0 Z " fill="#4A4E5C" transform="translate(136,322)"/>
<path d="M0 0 C2.20914 3.31371 2.22481553 4.3446021 2.125 8.1875 C2.10695313 9.08855469 2.08890625 9.98960937 2.0703125 10.91796875 C2.03550781 11.94857422 2.03550781 11.94857422 2 13 C2.66 13 3.32 13 4 13 C4 16.96 4 20.92 4 25 C3.34 25 2.68 25 2 25 C0.47983837 16.58481953 -0.27733386 8.5511272 0 0 Z " fill="#7C8089" transform="translate(321,126)"/>
<path d="M0 0 C0.33 0 0.66 0 1 0 C1.05525226 1.35368041 1.09334369 2.70806235 1.125 4.0625 C1.14820313 4.81660156 1.17140625 5.57070312 1.1953125 6.34765625 C0.9450757 9.74587193 -0.03154422 12.73492052 -1 16 C-1.59797504 18.6352164 -2.1146283 21.28408797 -2.625 23.9375 C-2.7590625 24.62134766 -2.893125 25.30519531 -3.03125 26.00976562 C-3.35685049 27.67265383 -3.67881344 29.33625361 -4 31 C-4.33 31 -4.66 31 -5 31 C-5.09765625 24.84765625 -5.09765625 24.84765625 -5 23 C-4.67 22.67 -4.34 22.34 -4 22 C-3.71552851 20.45551341 -3.48585523 18.90083046 -3.28125 17.34375 C-3.15363281 16.40402344 -3.02601563 15.46429688 -2.89453125 14.49609375 C-2.76433594 13.50738281 -2.63414062 12.51867187 -2.5 11.5 C-2.24342751 9.55157327 -1.98320794 7.60362212 -1.71875 5.65625 C-1.60466797 4.78806641 -1.49058594 3.91988281 -1.37304688 3.02539062 C-1 1 -1 1 0 0 Z " fill="#6A6D78" transform="translate(324,173)"/>
<path d="M0 0 C0.6875 1.5625 0.6875 1.5625 1 4 C0.27127399 5.63647431 -0.45814825 7.2726433 -1.19165039 8.90698242 C-2.99278327 13.57056205 -3.64120425 18.60101814 -4.54882812 23.5 C-4.70931641 24.32242188 -4.86980469 25.14484375 -5.03515625 25.9921875 C-5.1731665 26.73839355 -5.31117676 27.48459961 -5.45336914 28.25341797 C-5.63375732 28.82979004 -5.81414551 29.40616211 -6 30 C-6.66 30.33 -7.32 30.66 -8 31 C-8 28.69 -8 26.38 -8 24 C-7.34 24 -6.68 24 -6 24 C-6.07541016 22.50919922 -6.07541016 22.50919922 -6.15234375 20.98828125 C-5.98490251 16.6047555 -5.03678682 13.26920317 -3.5625 9.1875 C-3.33240234 8.52041016 -3.10230469 7.85332031 -2.86523438 7.16601562 C-2.01223938 4.71581841 -1.16143723 2.32287446 0 0 Z " fill="#B5B6BC" transform="translate(8,109)"/>
<path d="M0 0 C-4.625 3 -4.625 3 -8 3 C-8.33 3.99 -8.66 4.98 -9 6 C-10.7421875 7.16796875 -10.7421875 7.16796875 -12.875 8.1875 C-13.57367188 8.53167969 -14.27234375 8.87585937 -14.9921875 9.23046875 C-17 10 -17 10 -20 10 C-17.53727541 6.56977646 -16.20658881 4.72527393 -12 4 C-11.67 3.34 -11.34 2.68 -11 2 C-9.00390625 1.11328125 -9.00390625 1.11328125 -6.5625 0.3125 C-5.35787109 -0.09548828 -5.35787109 -0.09548828 -4.12890625 -0.51171875 C-2 -1 -2 -1 0 0 Z " fill="#92969E" transform="translate(94,16)"/>
<path d="M0 0 C2.1875 0.125 2.1875 0.125 5 1 C6.73223664 2.94348501 8.39881603 4.94720004 10 7 C11.051875 7.7734375 11.051875 7.7734375 12.125 8.5625 C14.63459615 10.48652372 15.71141893 12.10069259 17 15 C17.23780628 17.72212294 17.13942627 20.25794999 17 23 C16.67 23 16.34 23 16 23 C15.896875 21.948125 15.79375 20.89625 15.6875 19.8125 C14.51080017 13.28716457 11.52365667 10.31323717 6.375 6.3125 C1.09472551 2.18945102 1.09472551 2.18945102 0 0 Z " fill="#49657D" transform="translate(109,100)"/>
<path d="M0 0 C0 0.33 0 0.66 0 1 C-1.22976562 1.29003906 -1.22976562 1.29003906 -2.484375 1.5859375 C-4.10085937 1.97652344 -4.10085937 1.97652344 -5.75 2.375 C-7.35101563 2.75785156 -7.35101563 2.75785156 -8.984375 3.1484375 C-11.57699525 3.88055047 -13.63738082 4.75009824 -16 6 C-18.32315031 6.7013284 -20.65789079 7.36485174 -23 8 C-24.31307684 8.37297513 -25.62560297 8.747896 -26.9375 9.125 C-27.948125 9.41375 -28.95875 9.7025 -30 10 C-26.91776374 5.97969183 -24.15807334 5.42297224 -19.4296875 4.5703125 C-16.86610579 3.96857146 -14.79330856 3.0406769 -12.4375 1.875 C-8.06235726 -0.20473335 -4.80255416 -0.34927667 0 0 Z " fill="#9B9DA5" transform="translate(124,5)"/>
<path d="M0 0 C1.23556641 0.01740234 1.23556641 0.01740234 2.49609375 0.03515625 C3.32238281 0.04417969 4.14867187 0.05320313 5 0.0625 C5.63808594 0.07410156 6.27617187 0.08570313 6.93359375 0.09765625 C6.60359375 0.75765625 6.27359375 1.41765625 5.93359375 2.09765625 C3.53869441 2.55453854 1.2258026 2.8949091 -1.19140625 3.16015625 C-2.49335938 3.31613281 -3.7953125 3.47210938 -5.13671875 3.6328125 C-7.08191406 3.86291016 -7.08191406 3.86291016 -9.06640625 4.09765625 C-11.4020413 4.41695966 -13.73398341 4.75536562 -16.06640625 5.09765625 C-15.73640625 4.10765625 -15.40640625 3.11765625 -15.06640625 2.09765625 C-14.21175781 2.03707031 -13.35710937 1.97648438 -12.4765625 1.9140625 C-10.81947266 1.78837891 -10.81947266 1.78837891 -9.12890625 1.66015625 C-8.02675781 1.57894531 -6.92460937 1.49773438 -5.7890625 1.4140625 C-3.01405801 1.09157274 -2.60201448 0.12296855 0 0 Z " fill="#92949C" transform="translate(140.06640625,-0.09765625)"/>
<path d="M0 0 C2.73202214 1.36601107 3.12567545 2.95351052 4.4375 5.6875 C4.87578125 6.59371094 5.3140625 7.49992188 5.765625 8.43359375 C6.17296875 9.28050781 6.5803125 10.12742188 7 11 C7.556875 12.0725 8.11375 13.145 8.6875 14.25 C10.05312956 17.11131907 11.06329096 19.97370926 12 23 C9.47154472 21.73577236 9.23577236 20.47154472 8 18 C7.34 17.67 6.68 17.34 6 17 C4.87474658 14.53085583 3.85040864 12.08969512 2.875 9.5625 C2.59785156 8.86833984 2.32070312 8.17417969 2.03515625 7.45898438 C0 2.28086515 0 2.28086515 0 0 Z " fill="#8E9199" transform="translate(12,224)"/>
<path d="M0 0 C0.99773437 0.02320312 1.99546875 0.04640625 3.0234375 0.0703125 C4.52777344 0.09738281 4.52777344 0.09738281 6.0625 0.125 C6.83335937 0.14820312 7.60421875 0.17140625 8.3984375 0.1953125 C8.3984375 0.8553125 8.3984375 1.5153125 8.3984375 2.1953125 C13.8434375 2.6903125 13.8434375 2.6903125 19.3984375 3.1953125 C19.3984375 3.5253125 19.3984375 3.8553125 19.3984375 4.1953125 C11.23603182 4.53384545 3.44771726 3.49433171 -4.6015625 2.1953125 C-2.6015625 0.1953125 -2.6015625 0.1953125 0 0 Z " fill="#535765" transform="translate(172.6015625,-0.1953125)"/>
<path d="M0 0 C0 3 0 3 -1 5.9375 C-2.57505826 11.13184107 -2.36440332 16.62716968 -2 22 C-1.67 22.33 -1.34 22.66 -1 23 C-0.95919217 24.99958364 -0.95745644 27.00045254 -1 29 C-4.08378506 25.90805678 -4.38722095 23.23234368 -4.41015625 18.94726562 C-4.39855469 18.20154297 -4.38695313 17.45582031 -4.375 16.6875 C-4.38660156 15.95337891 -4.39820312 15.21925781 -4.41015625 14.46289062 C-4.38324586 9.40822214 -3.78338514 3.78338514 0 0 Z " fill="#6DA8C5" transform="translate(72,110)"/>
<path d="M0 0 C1.31534494 3.65857532 0.65468309 6.08026481 -0.4375 9.75 C-0.72496094 10.73484375 -1.01242187 11.7196875 -1.30859375 12.734375 C-1.65083984 13.85585937 -1.65083984 13.85585937 -2 15 C-2.66 15 -3.32 15 -4 15 C-4 17.31 -4 19.62 -4 22 C-4.66 22 -5.32 22 -6 22 C-6.33 23.32 -6.66 24.64 -7 26 C-7.66 26 -8.32 26 -9 26 C-8.731875 25.34 -8.46375 24.68 -8.1875 24 C-5.05925534 16.09706612 -2.44487715 8.14131681 0 0 Z " fill="#B7BABF" transform="translate(319,204)"/>
<path d="M0 0 C0.33 0.66 0.66 1.32 1 2 C0.67 2.99 0.34 3.98 0 5 C-0.14573058 6.47965926 -0.24663268 7.96403843 -0.31640625 9.44921875 C-0.35830078 10.29677734 -0.40019531 11.14433594 -0.44335938 12.01757812 C-0.50233398 13.33918945 -0.50233398 13.33918945 -0.5625 14.6875 C-0.60568359 15.58017578 -0.64886719 16.47285156 -0.69335938 17.39257812 C-0.79935353 19.59490108 -0.90142051 21.79733473 -1 24 C-1.33 24 -1.66 24 -2 24 C-2.73196924 19.24219993 -3.13199158 14.5647434 -3.25 9.75 C-3.27578125 8.75484375 -3.3015625 7.7596875 -3.328125 6.734375 C-2.95500871 3.6250726 -2.07469802 2.29308729 0 0 Z " fill="#4F3A50" transform="translate(201,111)"/>
<path d="M0 0 C0 4.77871906 -2.39395452 7.31819884 -5.5 10.8125 C-8 13 -8 13 -11 13 C-11 13.66 -11 14.32 -11 15 C-12.32 14.67 -13.64 14.34 -15 14 C-8.72424304 8.41150173 -8.72424304 8.41150173 -5.25 6.4375 C-2.52224705 4.69476895 -1.46263715 2.84829339 0 0 Z " fill="#657662" transform="translate(189,99)"/>
<path d="M0 0 C1.8413024 3.68260481 0.9459966 8.45039048 0.78515625 12.52734375 C0.68936806 17.51703773 1.44159202 20.57971395 4 25 C4 25.66 4 26.32 4 27 C1 26 1 26 -0.1730957 24.24682617 C-1.11041302 21.69999083 -1.24353034 19.7606767 -1.23046875 17.05078125 C-1.22853516 16.12072266 -1.22660156 15.19066406 -1.22460938 14.23242188 C-1.21236328 13.26884766 -1.20011719 12.30527344 -1.1875 11.3125 C-1.18685547 10.33732422 -1.18621094 9.36214844 -1.18554688 8.35742188 C-1.14034598 1.14034598 -1.14034598 1.14034598 0 0 Z " fill="#4D6B84" transform="translate(68,116)"/>
<path d="M0 0 C4.72331163 -0.57601361 7.42893591 0.37727611 11.1875 3.296875 C14.57311848 6.47818891 17.47930585 10.10020267 20 14 C20 14.66 20 15.32 20 16 C19.34 16 18.68 16 18 16 C17.566875 15.2575 17.13375 14.515 16.6875 13.75 C15.12316402 10.84683637 15.12316402 10.84683637 12.3125 8.875 C11.549375 8.25625 10.78625 7.6375 10 7 C10 6.01 10 5.02 10 4 C9.46375 3.87625 8.9275 3.7525 8.375 3.625 C5.5361714 2.87793984 2.77776798 1.94696636 0 1 C0 0.67 0 0.34 0 0 Z " fill="#90A975" transform="translate(168,59)"/>
<path d="M0 0 C-0.66 0 -1.32 0 -2 0 C-2 0.66 -2 1.32 -2 2 C-3.39025391 2.09087891 -3.39025391 2.09087891 -4.80859375 2.18359375 C-6.00613281 2.26738281 -7.20367187 2.35117187 -8.4375 2.4375 C-9.63246094 2.51871094 -10.82742187 2.59992188 -12.05859375 2.68359375 C-14.88570244 2.67656114 -14.88570244 2.67656114 -16 4 C-18.33297433 4.04092937 -20.66705225 4.04241723 -23 4 C-22.67 3.34 -22.34 2.68 -22 2 C-19.33692569 1.54878143 -16.74463442 1.20409072 -14.0625 0.9375 C-1.33497748 -0.40049324 -1.33497748 -0.40049324 0 0 Z " fill="#AAACB2" transform="translate(203,321)"/>
<path d="M0 0 C3.67811674 2.68403113 5.78476797 5.05110812 8 9 C9.31037934 10.68477344 10.63823078 12.35648543 12 14 C11.67 14.66 11.34 15.32 11 16 C5.68133749 12.1656154 2.66552007 8.00331733 0 2 C0 1.34 0 0.68 0 0 Z " fill="#AAABB2" transform="translate(26,251)"/>
<path d="M0 0 C-0.639375 0.309375 -1.27875 0.61875 -1.9375 0.9375 C-3.93610821 1.8345163 -3.93610821 1.8345163 -5 3 C-7.35313555 3.07271741 -9.70833668 3.08370868 -12.0625 3.0625 C-13.35285156 3.05347656 -14.64320312 3.04445312 -15.97265625 3.03515625 C-16.97167969 3.02355469 -17.97070312 3.01195312 -19 3 C-19.33 2.34 -19.66 1.68 -20 1 C-6.3667426 -0.14806378 -6.3667426 -0.14806378 0 0 Z " fill="#594789" transform="translate(118,227)"/>
<path d="M0 0 C0.671875 1.7578125 0.671875 1.7578125 1 4 C-0.109375 5.9296875 -0.109375 5.9296875 -1.75 7.875 C-4.34171049 11.0935428 -6.29470482 14.21045515 -8 18 C-8.6875 16.375 -8.6875 16.375 -9 14 C-6.66666667 8.33333333 -6.66666667 8.33333333 -4 7 C-3.31867549 5.33927151 -2.65257873 3.672233 -2 2 C-1.34 1.34 -0.68 0.68 0 0 Z " fill="#9D9FA6" transform="translate(24,76)"/>
<path d="M0 0 C7.19270926 -0.50181693 10.62886842 2.61828739 16 7 C16.99 7.66 17.98 8.32 19 9 C15.00112425 8.42873204 12.40346284 7.12716428 9 5 C8.154375 4.67 7.30875 4.34 6.4375 4 C3.92982049 2.97120841 2.09290902 1.70533328 0 0 Z " fill="#6F737E" transform="translate(85,305)"/>
<path d="M0 0 C0.33 0 0.66 0 1 0 C1.70132913 6.70019789 2.11044961 13.26257354 2 20 C0.0271799 16.05435979 -1.13825171 13.59082654 -1.125 9.125 C-1.12757812 8.26132813 -1.13015625 7.39765625 -1.1328125 6.5078125 C-1.01023921 4.19334029 -0.64966445 2.21710884 0 0 Z " fill="#564684" transform="translate(77,192)"/>
<path d="M0 0 C0.66 0.33 1.32 0.66 2 1 C0.54474941 2.48219967 -0.914299 3.96067139 -2.375 5.4375 C-3.18710938 6.26121094 -3.99921875 7.08492187 -4.8359375 7.93359375 C-7 10 -7 10 -9 11 C-9.33 11.99 -9.66 12.98 -10 14 C-10.66 14 -11.32 14 -12 14 C-10.60089587 9.47301364 -8.4384826 7.24844018 -4.875 4.1875 C-3.96492188 3.39730469 -3.05484375 2.60710937 -2.1171875 1.79296875 C-1.06917969 0.90544922 -1.06917969 0.90544922 0 0 Z " fill="#7352B1" transform="translate(92,175)"/>
<path d="M0 0 C7.25249169 0.36877076 7.25249169 0.36877076 10.8125 3.375 C11.534375 4.24125 12.25625 5.1075 13 6 C13.598125 6.598125 14.19625 7.19625 14.8125 7.8125 C15.204375 8.204375 15.59625 8.59625 16 9 C15.67 9.66 15.34 10.32 15 11 C14.50371094 10.51789063 14.00742188 10.03578125 13.49609375 9.5390625 C9.10942517 5.46037634 5.91221552 3.10854041 0 2 C0 1.34 0 0.68 0 0 Z " fill="#8E455D" transform="translate(236,96)"/>
<path d="M0 0 C3.90288685 2.60192457 3.99523245 4.51719093 5 9 C5 10.32 5 11.64 5 13 C3.046875 12.3515625 3.046875 12.3515625 1 11 C0.390625 8.3984375 0.390625 8.3984375 0.25 5.375 C0.19328125 4.37210938 0.1365625 3.36921875 0.078125 2.3359375 C0.05234375 1.56507813 0.0265625 0.79421875 0 0 Z " fill="#A6A7AD" transform="translate(3,198)"/>
<path d="M0 0 C10.97592998 0.35010941 10.97592998 0.35010941 15.25 3.0625 C15.8275 3.701875 16.405 4.34125 17 5 C14.99722415 4.68377223 12.99810662 4.34450114 11 4 C10.14535156 3.85433594 9.29070312 3.70867188 8.41015625 3.55859375 C7.51167969 3.39488281 6.61320313 3.23117187 5.6875 3.0625 C4.82511719 2.90910156 3.96273437 2.75570313 3.07421875 2.59765625 C2.38972656 2.40042969 1.70523438 2.20320312 1 2 C0.67 1.34 0.34 0.68 0 0 Z " fill="#C1C3C7" transform="translate(198,3)"/>
<path d="M0 0 C-3.64578405 3.32875935 -8.21084385 5.0219329 -13 6 C-15.28125 5.578125 -15.28125 5.578125 -17 5 C-12.91270214 2.1388915 -4.87241741 -2.43620871 0 0 Z " fill="#B9BCC2" transform="translate(229,312)"/>
<path d="M0 0 C0.66 0.33 1.32 0.66 2 1 C1.2884375 1.6496875 1.2884375 1.6496875 0.5625 2.3125 C-1.23686957 4.02309613 -1.23686957 4.02309613 -2 7 C-3.62890625 8.38671875 -3.62890625 8.38671875 -5.5625 9.6875 C-6.52349609 10.34298828 -6.52349609 10.34298828 -7.50390625 11.01171875 C-7.99761719 11.33785156 -8.49132812 11.66398437 -9 12 C-9.66 11.67 -10.32 11.34 -11 11 C-7.81316569 6.66590534 -4.13621084 3.3810038 0 0 Z " fill="#9B9DA5" transform="translate(271,281)"/>
<path d="M0 0 C0.33 0.66 0.66 1.32 1 2 C0.0919838 3.13199353 -0.82683826 4.25532363 -1.75 5.375 C-2.26046875 6.00148437 -2.7709375 6.62796875 -3.296875 7.2734375 C-6.13571511 10.15134421 -8.21649085 10.96986503 -12.25 11.125 C-13.1575 11.08375 -14.065 11.0425 -15 11 C-15 10.67 -15 10.34 -15 10 C-13.7315625 9.6596875 -13.7315625 9.6596875 -12.4375 9.3125 C-7.18337737 7.30638045 -3.13587091 4.70380637 0 0 Z " fill="#563C51" transform="translate(251,142)"/>
<path d="M0 0 C0.66 0.33 1.32 0.66 2 1 C1.06409496 2.1055189 0.12620142 3.20935453 -0.8125 4.3125 C-1.33457031 4.92738281 -1.85664063 5.54226562 -2.39453125 6.17578125 C-4 8 -4 8 -5.57421875 9.54296875 C-7.23182102 11.14679959 -7.23182102 11.14679959 -9 14 C-7.83158539 6.98951234 -5.48670138 4.29394021 0 0 Z " fill="#4D5857" transform="translate(143,63)"/>
<path d="M0 0 C2.97 0 5.94 0 9 0 C9 0.66 9 1.32 9 2 C10.32 2.33 11.64 2.66 13 3 C10.18515955 4.40742022 8.43063887 3.66652164 5.375 3.0625 C4.37210938 2.86785156 3.36921875 2.67320313 2.3359375 2.47265625 C1.56507813 2.31667969 0.79421875 2.16070312 0 2 C0 1.34 0 0.68 0 0 Z " fill="#E4E5E7" transform="translate(189,0)"/>
<path d="M0 0 C0.79921875 0.00902344 1.5984375 0.01804687 2.421875 0.02734375 C3.02515625 0.03894531 3.6284375 0.05054688 4.25 0.0625 C3.610625 0.371875 2.97125 0.68125 2.3125 1 C0.31389179 1.8970163 0.31389179 1.8970163 -0.75 3.0625 C-2.26928038 3.13429964 -3.79167482 3.14642007 -5.3125 3.125 C-6.13878906 3.11597656 -6.96507812 3.10695313 -7.81640625 3.09765625 C-8.45449219 3.08605469 -9.09257812 3.07445312 -9.75 3.0625 C-8.75 1.0625 -8.75 1.0625 -6.984375 0.44140625 C-4.60849677 0.03850382 -2.40820483 -0.03541478 0 0 Z " fill="#595D6A" transform="translate(180.75,321.9375)"/>
<path d="M0 0 C0 3 0 3 -1.86328125 5.0078125 C-2.67152344 5.70648438 -3.47976563 6.40515625 -4.3125 7.125 C-5.51326172 8.18074219 -5.51326172 8.18074219 -6.73828125 9.2578125 C-9 11 -9 11 -12 12 C-12 10 -12 10 -9.8125 7.5625 C-7.29333565 5.26726137 -4.94492022 3.67144121 -2 2 C-1.34 1.34 -0.68 0.68 0 0 Z " fill="#AAACB3" transform="translate(285,269)"/>
<path d="M0 0 C0.66 0 1.32 0 2 0 C3.10228696 4.40914783 3.07654536 8.48382401 3 13 C0.95204577 11.0373772 0.05023362 9.5722693 -0.19921875 6.73046875 C-0.18858877 4.48045617 -0.12958525 2.24614438 0 0 Z " fill="#C4C7CA" transform="translate(0,184)"/>
<path d="M0 0 C4.51617599 -0.07654536 8.59085217 -0.10228696 13 1 C13 1.66 13 2.32 13 3 C8.17639811 3.19294408 4.50353262 2.75747614 0 1 C0 0.67 0 0.34 0 0 Z " fill="#C4C5CA" transform="translate(128,322)"/>
<path d="M0 0 C0 3.78713193 -1.26892594 5.83354401 -3 9.1875 C-3.556875 10.27417969 -4.11375 11.36085937 -4.6875 12.48046875 C-5.120625 13.31191406 -5.55375 14.14335937 -6 15 C-6.66 14.67 -7.32 14.34 -8 14 C-7.34 12.35 -6.68 10.7 -6 9 C-5.34 9 -4.68 9 -4 9 C-3.8453125 8.1646875 -3.8453125 8.1646875 -3.6875 7.3125 C-2.86866423 4.55823422 -1.54146219 2.41272343 0 0 Z " fill="#C0C1C6" transform="translate(305,240)"/>
<path d="M0 0 C0.640625 1.83984375 0.640625 1.83984375 1 4 C-1.25 6.5625 -1.25 6.5625 -4 9 C-4.598125 9.598125 -5.19625 10.19625 -5.8125 10.8125 C-6.204375 11.204375 -6.59625 11.59625 -7 12 C-7.99 11.67 -8.98 11.34 -10 11 C-9.278125 10.484375 -8.55625 9.96875 -7.8125 9.4375 C-4.49943158 6.56617403 -2.44284263 3.6293662 0 0 Z " fill="#443E67" transform="translate(131,214)"/>
<path d="M0 0 C6.75 0.75 6.75 0.75 9 3 C10.175625 3.33 11.35125 3.66 12.5625 4 C13.696875 4.33 14.83125 4.66 16 5 C16.33 5.66 16.66 6.32 17 7 C15.68 7 14.36 7 13 7 C13 6.34 13 5.68 13 5 C12.21625 5.04125 11.4325 5.0825 10.625 5.125 C8 5 8 5 6 3 C4.01643517 2.28591666 2.01684563 1.61382258 0 1 C0 0.67 0 0.34 0 0 Z " fill="#5F626F" transform="translate(216,10)"/>
<path d="M0 0 C0.33 0 0.66 0 1 0 C1.28571429 8.57142857 1.28571429 8.57142857 -1 12 C-1.33 12 -1.66 12 -2 12 C-2.28571429 3.42857143 -2.28571429 3.42857143 0 0 Z " fill="#525563" transform="translate(2,142)"/>
<path d="M0 0 C2.64 0 5.28 0 8 0 C8 0.66 8 1.32 8 2 C9.32 2.33 10.64 2.66 12 3 C3.42857143 3.14285714 3.42857143 3.14285714 0 2 C0 1.34 0 0.68 0 0 Z " fill="#A2A4AC" transform="translate(181,0)"/>
<path d="M0 0 C3.10011632 2.53645881 4.0575938 5.15184135 5 9 C4.546875 11.19140625 4.546875 11.19140625 4 13 C3.32404685 11.58774074 2.65959941 10.16997095 2 8.75 C1.62875 7.96109375 1.2575 7.1721875 0.875 6.359375 C0 4 0 4 0 0 Z " fill="#9FA1A9" transform="translate(309,91)"/>
<path d="M0 0 C1.98 0.99 1.98 0.99 4 2 C4 2.66 4 3.32 4 4 C4.9590625 4.433125 4.9590625 4.433125 5.9375 4.875 C8 6 8 6 9 8 C6.0625 7.1875 6.0625 7.1875 3 6 C2.67 5.01 2.34 4.02 2 3 C1.34 2.67 0.68 2.34 0 2 C0 1.34 0 0.68 0 0 Z " fill="#5B86A1" transform="translate(72,143)"/>
<path d="M0 0 C0.33 0.99 0.66 1.98 1 3 C1.99 3.33 2.98 3.66 4 4 C4 6.64 4 9.28 4 12 C1.21366885 7.82050327 0 5.06624674 0 0 Z " fill="#777983" transform="translate(8,212)"/>
<path d="M0 0 C1.39460991 2.78921982 0.58060045 4.12077103 -0.3125 7.0625 C-0.57675781 7.96097656 -0.84101563 8.85945312 -1.11328125 9.78515625 C-2 12 -2 12 -4 13 C-3.27991594 8.39146203 -1.68704061 4.32762591 0 0 Z " fill="#676A76" transform="translate(318,205)"/>
<path d="M0 0 C0.33 0 0.66 0 1 0 C1.28571429 8.57142857 1.28571429 8.57142857 -1 12 C-1.33 12 -1.66 12 -2 12 C-2.21278058 7.53160785 -1.59138085 4.17737474 0 0 Z " fill="#888A93" transform="translate(2,134)"/>
<path d="M0 0 C0 3.62453269 -0.92469613 5.07920195 -3 8 C-3.99 8.33 -4.98 8.66 -6 9 C-4.68775452 5.06326356 -3.08089673 2.77280706 0 0 Z " fill="#C6C7CB" transform="translate(296,255)"/>
<path d="M0 0 C0.66 0 1.32 0 2 0 C0.99806563 3.79303725 0.18975773 6.71536341 -2 10 C-2.17942163 6.05272412 -2.09350689 3.4019487 0 0 Z " fill="#8B8D97" transform="translate(308,230)"/>
<path d="M0 0 C1.5 1.1875 1.5 1.1875 3 3 C3.1875 5.6875 3.1875 5.6875 3 8 C2.01 7.67 1.02 7.34 0 7 C0 4.69 0 2.38 0 0 Z " fill="#585C69" transform="translate(0,173)"/>
<path d="M0 0 C0.59296875 0.20496094 1.1859375 0.40992188 1.796875 0.62109375 C0.51036794 1.31820106 -0.78253165 2.00352251 -2.078125 2.68359375 C-3.15707031 3.25787109 -3.15707031 3.25787109 -4.2578125 3.84375 C-4.89976563 4.10027344 -5.54171875 4.35679688 -6.203125 4.62109375 C-6.863125 4.29109375 -7.523125 3.96109375 -8.203125 3.62109375 C-2.74543269 -0.47217548 -2.74543269 -0.47217548 0 0 Z " fill="#B4B6BC" transform="translate(102.203125,10.37890625)"/>
<path d="M0 0 C2.64 0 5.28 0 8 0 C5.23776722 2.76223278 2.79293383 2.57856291 -1 3 C-0.67 2.01 -0.34 1.02 0 0 Z " fill="#ADAEB5" transform="translate(125,2)"/>
<path d="M0 0 C1.27875 -0.061875 2.5575 -0.12375 3.875 -0.1875 C4.95394531 -0.23970703 4.95394531 -0.23970703 6.0546875 -0.29296875 C6.69664062 -0.19628906 7.33859375 -0.09960938 8 0 C8.66 0.99 9.32 1.98 10 3 C8.35 3 6.7 3 5 3 C5 2.34 5 1.68 5 1 C3.35 1 1.7 1 0 1 C0 0.67 0 0.34 0 0 Z " fill="#7D808A" transform="translate(136,322)"/>
<path d="M0 0 C0.33 0 0.66 0 1 0 C1.25 2.75 1.25 2.75 1 6 C-1 8.375 -1 8.375 -3 10 C-2.49287967 6.28111761 -1.88391785 3.26545761 0 0 Z " fill="#656773" transform="translate(313,218)"/>
</svg>
